<svg xmlns="http://www.w3.org/2000/svg" viewBox="0 0 951.56 677.85"><defs><style>.cls-1{opacity:0.21;}.cls-2{fill:#ff001f;}.cls-3{fill:#ead9c8;}.cls-4{fill:#c8b39f;}.cls-5{fill:#f5d57e;}.cls-6{fill:#efa365;}.cls-7{fill:#fffffd;}.cls-8{fill:#e5ad76;}.cls-9{fill:#ffe4ca;}.cls-10{fill:#fcb247;}.cls-11{fill:#fabe5e;}.cls-12{fill:#8cc63f;}.cls-13{fill:#564434;}.cls-14{fill:#765f47;}.cls-15{fill:#ffd629;}.cls-16{fill:#c1272d;}.cls-17{fill:#fdbf76;}.cls-18{fill:#ffd6ae;}.cls-19{fill:#fff300;}.cls-20{opacity:0.26;}.cls-21{fill:#fff;}.cls-22{fill:#ddd;}.cls-23{fill:#ed1c24;}.cls-24{opacity:0.49;}.cls-25{fill:#472b18;}.cls-26{opacity:0.11;}.cls-27{fill:#4f121e;}.cls-28{fill:#fffef1;}</style></defs><g id="Layer_2" data-name="Layer 2"><g id="Layer_2-2" data-name="Layer 2"><g class="cls-1"><path d="M903.86,677.85H29.75A29.75,29.75,0,0,1,0,648.1v-597A29.75,29.75,0,0,1,29.75,21.31H903.86a29.75,29.75,0,0,1,29.75,29.75v597A29.75,29.75,0,0,1,903.86,677.85Z"/></g><path class="cls-2" d="M921.81,656.54H47.7A29.75,29.75,0,0,1,18,626.79v-597A29.75,29.75,0,0,1,47.7,0H921.8a29.75,29.75,0,0,1,29.76,29.75v597A29.75,29.75,0,0,1,921.81,656.54Z"/><path class="cls-3" d="M861.36,614H108.14a29.75,29.75,0,0,1-29.75-29.75v-512a29.75,29.75,0,0,1,29.75-29.75H861.36a29.75,29.75,0,0,1,29.75,29.75v512A29.75,29.75,0,0,1,861.36,614Z"/><path class="cls-4" d="M547.65,283.27s10.73,35.49,56.12,36.32,172.5,0,204.69-36.32c0,0-149.39-75.93-187.35-69.33S547.65,283.27,547.65,283.27Z"/><g class="cls-1"><path d="M608.84,227.54a36.55,36.55,0,0,0-5.84,0c-3.71.34-7.31,1.42-11,2-2.67.39-5.43.53-7.88,1.64-3,1.36-5.13,4-7.58,6.18-3.38,3-7.43,5.19-10.69,8.32-5.65,5.43-7.45,12.41-10.3,19.39s-4.72,13.34-4.72,21.14a57.1,57.1,0,0,0,6.36,26.28c3.36,6.38,7.46,15.18,13.33,19.6,5.28,4,12.4,4.87,17.66,8.87a21.89,21.89,0,0,0,3.54,2.55,13.43,13.43,0,0,0,5.49,1,144.75,144.75,0,0,0,18.63-.14,46.25,46.25,0,0,0,14.24-3.92c3.52-1.48,7.59-2.29,10.47-5a20.28,20.28,0,0,1,2.52-2.39c2.09-1.41,5-1.2,7-2.76,2.83-2.26,2.07-6.18,3.74-9,1.9-3.24,5.24-5.31,7.08-8.81,1-1.88,1.78-3.94,3.34-5.38,1.06-1,2.47-1.65,3.12-2.93a6.5,6.5,0,0,0,.35-3.51q-.57-6.27-1.12-12.55c0-11.92-4.07-24.08-9.83-34.31-2.59-4.6-5.27-9.32-9.38-12.64-2.85-2.32-6.27-3.84-9.2-6.06-1.35-1-2.59-2.2-4-3.11-4-2.5-8.34-2.38-12.82-2.73C617.14,228.84,613.05,227.81,608.84,227.54Zm-.16,98.56c-1.41.12-2.82.19-4.22.23a24,24,0,0,1-8.93-1,26.68,26.68,0,0,1-6.46-3.85c-6.52-4.75-13.37-9.94-16.21-17.49a48.56,48.56,0,0,0-2-5.56c-.82-1.57-2-2.93-2.83-4.48-2.79-5.22-1.33-11.66.85-17.16,2.33-5.91,6.42-16.76,12-19.63,2.1-1.07,3.8-2.8,5.84-4,4.75-2.77,10.75-2.34,15.78-4.55,7.08-3.11,10.53-4.36,18-1.43a37,37,0,0,1,15.18,11.37,15.16,15.16,0,0,0,2.65,2.83c.93.68,2,1.11,3,1.75,3.18,2.09,4.47,6.05,5.52,9.71,2.69,9.4,4.32,15.21-1.36,23.9l-7.86,12a47.89,47.89,0,0,1-7,9C624.84,323.28,616.75,325.42,608.68,326.1Z"/></g><path class="cls-5" d="M614.45,221.93a37.76,37.76,0,0,0-5.84,0c-3.71.34-7.31,1.43-11,2-2.66.4-5.42.53-7.87,1.65-3,1.35-5.13,4-7.58,6.17-3.38,3-7.43,5.19-10.69,8.32-5.65,5.43-7.45,12.41-10.3,19.4s-4.72,13.34-4.72,21.13a57.07,57.07,0,0,0,6.36,26.28c3.35,6.38,7.46,15.18,13.33,19.6,5.28,4,12.4,4.87,17.66,8.87a21.46,21.46,0,0,0,3.54,2.55,13.4,13.4,0,0,0,5.49,1,144.75,144.75,0,0,0,18.63-.14,46.46,46.46,0,0,0,14.23-3.91c3.52-1.49,7.59-2.3,10.48-5a21,21,0,0,1,2.52-2.39c2.09-1.41,5-1.19,7-2.76,2.83-2.25,2.06-6.17,3.74-9,1.9-3.23,5.24-5.31,7.08-8.81,1-1.88,1.78-3.94,3.34-5.38,1.06-1,2.46-1.64,3.12-2.92a6.45,6.45,0,0,0,.34-3.52l-1.11-12.55c0-11.92-4.08-24.08-9.83-34.3-2.59-4.61-5.28-9.33-9.38-12.65-2.85-2.31-6.27-3.84-9.2-6.06-1.35-1-2.6-2.2-4-3.11-4-2.5-8.34-2.38-12.82-2.73C622.75,223.23,618.66,222.2,614.45,221.93Zm-.16,98.56c-1.41.12-2.82.19-4.22.23a24.18,24.18,0,0,1-8.93-1,27.14,27.14,0,0,1-6.46-3.85c-6.52-4.76-13.37-9.94-16.21-17.5a49.27,49.27,0,0,0-2-5.56c-.82-1.57-2-2.92-2.83-4.48-2.79-5.22-1.33-11.66.85-17.16,2.33-5.9,6.42-16.76,12-19.63,2.1-1.07,3.8-2.8,5.84-4,4.75-2.76,10.75-2.33,15.78-4.55,7.08-3.11,10.53-4.36,18-1.43a37,37,0,0,1,15.18,11.37,14.85,14.85,0,0,0,2.65,2.83c.93.68,2,1.11,3,1.75,3.18,2.09,4.47,6.05,5.52,9.71,2.69,9.4,4.31,15.21-1.36,23.91l-7.86,12a47.59,47.59,0,0,1-7,9C630.44,317.67,622.36,319.81,614.29,320.49Z"/><path class="cls-6" d="M660.69,294.67a5,5,0,0,0,.27-2.77q-.44-4.95-.88-9.9c0-9.4-3.21-19-7.75-27.06-2-3.63-4.16-7.35-7.4-10-2.25-1.83-4.94-3-7.25-4.78-1.07-.81-2-1.74-3.19-2.45-3.12-2-6.58-1.88-10.1-2.16-3.3-.26-6.52-1.07-9.84-1.28a29.43,29.43,0,0,0-4.61,0c-2.93.27-5.77,1.12-8.67,1.56a22.75,22.75,0,0,0-6.21,1.3c-2.35,1.07-4,3.15-6,4.87-2.67,2.37-5.86,4.09-8.43,6.56-4.46,4.29-5.88,9.79-8.13,15.3s-3.72,10.52-3.72,16.67a44.89,44.89,0,0,0,5,20.73c2.64,5,5.88,12,10.51,15.46,4.16,3.14,9.78,3.84,13.93,7a17.17,17.17,0,0,0,2.79,2,10.93,10.93,0,0,0,4.33.76,116.28,116.28,0,0,0,14.7-.11,36.92,36.92,0,0,0,11.22-3.09c2.78-1.17,6-1.82,8.27-4a16.14,16.14,0,0,1,2-1.89c1.64-1.11,3.94-.94,5.5-2.18,2.23-1.78,1.63-4.87,3-7.13,1.5-2.55,4.13-4.19,5.58-6.94a14.69,14.69,0,0,1,2.64-4.25C659.07,296.22,660.17,295.68,660.69,294.67Zm-9.59-3.54-7.86,12a47.59,47.59,0,0,1-7,9c-5.82,5.47-13.91,7.61-22,8.29-1.41.12-2.82.19-4.22.23a24.18,24.18,0,0,1-8.93-1,27.14,27.14,0,0,1-6.46-3.85c-6.52-4.76-13.37-9.94-16.21-17.5a49.27,49.27,0,0,0-2-5.56c-.82-1.57-2-2.92-2.83-4.48-2.79-5.22-1.33-11.66.85-17.16,2.33-5.9,6.42-16.76,12-19.63,2.1-1.07,3.8-2.8,5.84-4,4.75-2.76,10.75-2.33,15.78-4.55,7.08-3.11,10.53-4.36,18-1.43a37,37,0,0,1,15.18,11.37,14.85,14.85,0,0,0,2.65,2.83c.93.68,2,1.11,3,1.75,3.18,2.09,4.47,6.05,5.52,9.71C655.15,276.62,656.77,282.43,651.1,291.13Z"/><g class="cls-1"><path d="M739,225.48a37.89,37.89,0,0,0-5.85,0c-3.71.34-7.31,1.43-11,2-2.66.4-5.43.53-7.88,1.65-3,1.36-5.13,4-7.58,6.17-3.38,3-7.43,5.19-10.68,8.33-5.66,5.43-7.46,12.4-10.3,19.39S681,276.37,681,284.16a57.06,57.06,0,0,0,6.35,26.28c3.36,6.39,7.47,15.18,13.34,19.61,5.27,4,12.4,4.86,17.65,8.86a21.3,21.3,0,0,0,3.54,2.55,13.6,13.6,0,0,0,5.49,1,144.72,144.72,0,0,0,18.63-.15,46.44,46.44,0,0,0,14.24-3.91c3.52-1.49,7.59-2.3,10.48-5a21.78,21.78,0,0,1,2.51-2.39c2.09-1.41,5-1.19,7-2.76,2.83-2.25,2.07-6.17,3.75-9,1.89-3.23,5.23-5.31,7.07-8.8,1-1.88,1.78-3.95,3.35-5.39,1-1,2.46-1.64,3.11-2.92a6.45,6.45,0,0,0,.35-3.52q-.56-6.27-1.12-12.54c0-11.93-4.07-24.09-9.82-34.31-2.6-4.61-5.28-9.33-9.39-12.65-2.85-2.31-6.26-3.84-9.19-6.06-1.36-1-2.6-2.2-4-3.11-4-2.5-8.34-2.38-12.81-2.73C747.25,226.78,743.16,225.76,739,225.48ZM738.8,324c-1.41.12-2.83.19-4.22.23a24,24,0,0,1-8.94-1,27.33,27.33,0,0,1-6.46-3.85c-6.52-4.76-13.37-9.94-16.2-17.5a48.46,48.46,0,0,0-2.05-5.55c-.81-1.57-2-2.93-2.82-4.49-2.8-5.22-1.33-11.66.84-17.16,2.33-5.9,6.42-16.76,12-19.62,2.1-1.08,3.8-2.81,5.83-4,4.75-2.77,10.75-2.34,15.79-4.55,7.08-3.12,10.52-4.37,18-1.43a36.78,36.78,0,0,1,15.18,11.37,14.85,14.85,0,0,0,2.66,2.82c.93.69,2,1.11,3,1.75,3.18,2.1,4.48,6.05,5.52,9.71,2.69,9.4,4.32,15.21-1.36,23.91q-3.93,6-7.85,12.05a48.26,48.26,0,0,1-7,9C755,321.22,746.87,323.36,738.8,324Z"/></g><path class="cls-5" d="M744.57,219.87a39.18,39.18,0,0,0-5.85,0c-3.71.34-7.31,1.43-11,2-2.67.4-5.43.53-7.88,1.65-3,1.36-5.13,4-7.58,6.17-3.38,3-7.43,5.2-10.69,8.33-5.65,5.43-7.45,12.4-10.3,19.39s-4.71,13.34-4.71,21.13a57,57,0,0,0,6.35,26.28c3.36,6.39,7.46,15.18,13.34,19.61,5.27,4,12.39,4.86,17.65,8.86a21.3,21.3,0,0,0,3.54,2.55,13.6,13.6,0,0,0,5.49,1,144.75,144.75,0,0,0,18.63-.14,46.82,46.82,0,0,0,14.24-3.92c3.52-1.48,7.59-2.3,10.47-5a21.92,21.92,0,0,1,2.52-2.4c2.09-1.41,5-1.19,7-2.76,2.83-2.25,2.07-6.17,3.75-9,1.89-3.24,5.23-5.31,7.07-8.81,1-1.88,1.78-4,3.34-5.38,1.06-1,2.47-1.65,3.12-2.93a6.45,6.45,0,0,0,.35-3.52q-.55-6.27-1.12-12.54c0-11.93-4.07-24.08-9.83-34.31-2.59-4.61-5.27-9.32-9.38-12.65-2.85-2.31-6.27-3.84-9.19-6.06-1.36-1-2.6-2.2-4-3.1-4-2.5-8.34-2.38-12.81-2.74C752.86,221.17,748.77,220.15,744.57,219.87Zm-.16,98.56c-1.42.12-2.83.19-4.23.23a23.77,23.77,0,0,1-8.93-1,27.33,27.33,0,0,1-6.46-3.85c-6.52-4.76-13.37-9.94-16.21-17.49a48.56,48.56,0,0,0-2-5.56c-.81-1.57-2-2.93-2.83-4.49-2.79-5.22-1.32-11.66.85-17.16,2.33-5.9,6.42-16.76,12-19.62,2.1-1.08,3.8-2.8,5.84-4,4.75-2.77,10.75-2.34,15.78-4.55,7.08-3.11,10.53-4.37,18.05-1.43a36.78,36.78,0,0,1,15.18,11.37,15.16,15.16,0,0,0,2.65,2.83c.93.68,2,1.11,3,1.74,3.18,2.1,4.48,6.05,5.52,9.71,2.69,9.4,4.32,15.21-1.36,23.91l-7.86,12.05a48.21,48.21,0,0,1-7,9C760.56,315.61,752.47,317.76,744.41,318.43Z"/><path class="cls-6" d="M790.8,292.62a5,5,0,0,0,.27-2.78L790.2,280c0-9.41-3.22-19-7.76-27.07-2-3.63-4.16-7.35-7.4-10-2.25-1.82-4.94-3-7.25-4.78-1.07-.81-2-1.74-3.18-2.45-3.13-2-6.58-1.88-10.11-2.16-3.29-.26-6.52-1.07-9.84-1.28a29.43,29.43,0,0,0-4.61,0c-2.92.27-5.76,1.13-8.67,1.56-2.1.32-4.28.42-6.21,1.3-2.35,1.07-4,3.16-6,4.87-2.66,2.37-5.86,4.1-8.43,6.57-4.46,4.28-5.88,9.78-8.12,15.29s-3.73,10.53-3.73,16.67a45,45,0,0,0,5,20.73c2.65,5,5.88,12,10.51,15.46,4.17,3.14,9.78,3.84,13.93,7a17.44,17.44,0,0,0,2.79,2,10.77,10.77,0,0,0,4.34.76,114.29,114.29,0,0,0,14.69-.11,36.77,36.77,0,0,0,11.23-3.09c2.77-1.17,6-1.81,8.26-4a16.88,16.88,0,0,1,2-1.89c1.65-1.11,4-.94,5.5-2.18,2.24-1.77,1.63-4.87,3-7.12,1.49-2.56,4.13-4.19,5.58-6.95a14.93,14.93,0,0,1,2.63-4.25C789.18,294.16,790.29,293.62,790.8,292.62Zm-9.59-3.55-7.86,12.05a48.21,48.21,0,0,1-7,9c-5.83,5.47-13.92,7.62-22,8.29-1.42.12-2.83.19-4.23.23a23.77,23.77,0,0,1-8.93-1,27.33,27.33,0,0,1-6.46-3.85c-6.52-4.76-13.37-9.94-16.21-17.49a48.56,48.56,0,0,0-2-5.56c-.81-1.57-2-2.93-2.83-4.49-2.79-5.22-1.32-11.66.85-17.16,2.33-5.9,6.42-16.76,12-19.62,2.1-1.08,3.8-2.8,5.84-4,4.75-2.77,10.75-2.34,15.78-4.55,7.08-3.11,10.53-4.37,18.05-1.43a36.78,36.78,0,0,1,15.18,11.37,15.16,15.16,0,0,0,2.65,2.83c.93.68,2,1.11,3,1.74,3.18,2.1,4.48,6.05,5.52,9.71C785.26,274.56,786.89,280.37,781.21,289.07Z"/><g class="cls-1"><path d="M649.94,216.47a36.55,36.55,0,0,0-5.84,0c-3.71.34-7.31,1.42-11,2-2.66.39-5.43.53-7.87,1.64-3,1.36-5.14,4-7.59,6.18-3.37,3-7.42,5.19-10.68,8.32-5.65,5.43-7.45,12.41-10.3,19.39s-4.72,13.34-4.72,21.14a57,57,0,0,0,6.36,26.27c3.35,6.39,7.46,15.19,13.33,19.61,5.28,4,12.4,4.86,17.65,8.87a21.89,21.89,0,0,0,3.54,2.55,13.81,13.81,0,0,0,5.5,1,144.75,144.75,0,0,0,18.63-.14,46.19,46.19,0,0,0,14.23-3.92c3.52-1.48,7.59-2.29,10.48-5a20.4,20.4,0,0,1,2.52-2.4c2.08-1.4,5-1.19,7-2.75,2.84-2.26,2.07-6.18,3.75-9,1.9-3.24,5.23-5.31,7.08-8.81,1-1.88,1.77-3.94,3.34-5.38,1.06-1,2.46-1.65,3.11-2.93a6.32,6.32,0,0,0,.35-3.51L707.67,277c0-11.92-4.08-24.08-9.83-34.31-2.59-4.6-5.28-9.32-9.38-12.64-2.86-2.32-6.27-3.84-9.2-6.06-1.35-1-2.6-2.2-4-3.11-4-2.5-8.35-2.38-12.82-2.73C658.24,217.77,654.15,216.74,649.94,216.47ZM649.78,315c-1.41.12-2.82.19-4.22.23a24,24,0,0,1-8.94-1,26.87,26.87,0,0,1-6.46-3.85c-6.51-4.75-13.36-9.94-16.2-17.49a50.53,50.53,0,0,0-2-5.56c-.82-1.57-2-2.93-2.83-4.49-2.79-5.21-1.33-11.65.84-17.15,2.34-5.91,6.42-16.76,12-19.63,2.1-1.08,3.8-2.8,5.84-4,4.75-2.77,10.75-2.34,15.78-4.55,7.08-3.11,10.52-4.36,18.05-1.43a37,37,0,0,1,15.18,11.37,14.83,14.83,0,0,0,2.65,2.83c.93.68,2,1.11,3,1.74,3.18,2.1,4.48,6,5.53,9.72,2.69,9.4,4.31,15.21-1.36,23.9l-7.86,12a47.53,47.53,0,0,1-7,9C665.93,312.21,657.85,314.35,649.78,315Z"/></g><path class="cls-5" d="M655.55,210.86a37.89,37.89,0,0,0-5.85,0c-3.71.34-7.31,1.43-11,2-2.66.39-5.43.53-7.88,1.65-3,1.35-5.13,4-7.58,6.17-3.37,3-7.43,5.19-10.68,8.32-5.66,5.43-7.46,12.41-10.3,19.39s-4.72,13.35-4.72,21.14a57.06,57.06,0,0,0,6.35,26.28c3.36,6.38,7.47,15.18,13.34,19.6,5.27,4,12.4,4.87,17.65,8.87a21.89,21.89,0,0,0,3.54,2.55,13.44,13.44,0,0,0,5.5,1,144.58,144.58,0,0,0,18.62-.14,46.44,46.44,0,0,0,14.24-3.91c3.52-1.49,7.59-2.3,10.48-5a21,21,0,0,1,2.51-2.39c2.09-1.41,5-1.2,7-2.76,2.83-2.26,2.07-6.17,3.75-9,1.89-3.23,5.23-5.31,7.07-8.81,1-1.88,1.78-3.94,3.35-5.38,1.06-1,2.46-1.65,3.11-2.92a6.45,6.45,0,0,0,.35-3.52l-1.11-12.55c0-11.92-4.08-24.08-9.83-34.31-2.59-4.6-5.28-9.32-9.38-12.64-2.86-2.31-6.27-3.84-9.2-6.06-1.35-1-2.6-2.2-4-3.11-4-2.5-8.34-2.38-12.81-2.73C663.84,212.16,659.75,211.13,655.55,210.86Zm-.16,98.56c-1.41.12-2.83.19-4.22.23a24,24,0,0,1-8.94-1,26.68,26.68,0,0,1-6.46-3.85c-6.52-4.75-13.36-9.94-16.2-17.49a48.61,48.61,0,0,0-2.05-5.56c-.81-1.57-2-2.92-2.82-4.48-2.8-5.22-1.33-11.66.84-17.16,2.33-5.9,6.42-16.76,12-19.63,2.1-1.07,3.8-2.8,5.83-4,4.75-2.77,10.75-2.34,15.79-4.55,7.08-3.11,10.52-4.36,18-1.43a37,37,0,0,1,15.18,11.37,15.21,15.21,0,0,0,2.66,2.83c.93.68,2,1.11,3,1.75,3.18,2.09,4.48,6.05,5.53,9.71,2.68,9.4,4.31,15.21-1.37,23.9l-7.85,12.05a47.53,47.53,0,0,1-7,9C671.54,306.6,663.46,308.74,655.39,309.42Z"/><path class="cls-6" d="M701.78,283.6a5.09,5.09,0,0,0,.28-2.77q-.45-4.95-.88-9.9c0-9.4-3.22-19-7.76-27.06-2-3.63-4.16-7.35-7.39-10-2.26-1.82-4.95-3-7.26-4.77-1.06-.81-2-1.74-3.18-2.45-3.12-2-6.58-1.88-10.11-2.16-3.29-.26-6.52-1.07-9.83-1.29a30.63,30.63,0,0,0-4.61,0c-2.93.27-5.77,1.12-8.68,1.56a22.75,22.75,0,0,0-6.21,1.3c-2.35,1.07-4,3.15-6,4.87-2.66,2.36-5.86,4.09-8.43,6.56-4.46,4.29-5.88,9.79-8.12,15.3s-3.72,10.52-3.72,16.67a45,45,0,0,0,5,20.73c2.65,5,5.89,12,10.52,15.46,4.16,3.14,9.78,3.84,13.92,7a17.5,17.5,0,0,0,2.79,2,11,11,0,0,0,4.34.76,114.28,114.28,0,0,0,14.69-.12,36.41,36.41,0,0,0,11.23-3.09c2.78-1.17,6-1.81,8.26-4a16.79,16.79,0,0,1,2-1.88c1.65-1.12,4-.94,5.5-2.18,2.24-1.78,1.63-4.87,3-7.13,1.49-2.55,4.13-4.19,5.58-7a14.56,14.56,0,0,1,2.64-4.24C700.16,285.14,701.27,284.61,701.78,283.6Zm-9.59-3.55-7.85,12.05a47.53,47.53,0,0,1-7,9c-5.83,5.48-13.91,7.62-22,8.3-1.41.12-2.83.19-4.22.23a24,24,0,0,1-8.94-1,26.68,26.68,0,0,1-6.46-3.85c-6.52-4.75-13.36-9.94-16.2-17.49a48.61,48.61,0,0,0-2.05-5.56c-.81-1.57-2-2.92-2.82-4.48-2.8-5.22-1.33-11.66.84-17.16,2.33-5.9,6.42-16.76,12-19.63,2.1-1.07,3.8-2.8,5.83-4,4.75-2.77,10.75-2.34,15.79-4.55,7.08-3.11,10.52-4.36,18.05-1.43a37,37,0,0,1,15.17,11.37,15.21,15.21,0,0,0,2.66,2.83c.93.68,2,1.11,3,1.75,3.18,2.09,4.48,6.05,5.53,9.71C696.24,265.55,697.87,271.36,692.19,280.05Z"/><g class="cls-1"><path d="M710.61,216a39.18,39.18,0,0,0-5.85,0c-3.71.34-7.31,1.43-11,2-2.67.4-5.43.53-7.88,1.65-3,1.36-5.13,4-7.58,6.17-3.38,3-7.43,5.2-10.69,8.33-5.65,5.43-7.45,12.4-10.3,19.39s-4.71,13.34-4.72,21.13A57.16,57.16,0,0,0,659,301c3.36,6.39,7.46,15.18,13.33,19.61,5.28,4,12.4,4.86,17.66,8.86a22,22,0,0,0,3.54,2.56,13.77,13.77,0,0,0,5.49,1,144.75,144.75,0,0,0,18.63-.14,46.53,46.53,0,0,0,14.24-3.92c3.52-1.48,7.59-2.3,10.47-5a21.92,21.92,0,0,1,2.52-2.4c2.09-1.41,5-1.19,7-2.76,2.83-2.25,2.07-6.17,3.75-9,1.89-3.24,5.23-5.31,7.07-8.81,1-1.88,1.78-3.95,3.34-5.38,1.06-1,2.47-1.65,3.12-2.93a6.54,6.54,0,0,0,.35-3.52q-.57-6.27-1.12-12.54c0-11.92-4.07-24.08-9.83-34.31-2.59-4.6-5.27-9.32-9.38-12.65-2.85-2.31-6.27-3.84-9.19-6.06-1.36-1-2.6-2.2-4-3.1-4-2.5-8.34-2.38-12.82-2.74C718.9,217.32,714.81,216.29,710.61,216Zm-.17,98.56c-1.41.12-2.82.2-4.22.23a23.77,23.77,0,0,1-8.93-1,27.33,27.33,0,0,1-6.46-3.85c-6.52-4.76-13.37-9.94-16.21-17.49a48.56,48.56,0,0,0-2-5.56c-.82-1.57-2-2.93-2.83-4.49-2.79-5.22-1.33-11.66.85-17.16,2.33-5.9,6.42-16.76,12-19.62,2.1-1.08,3.8-2.8,5.84-4,4.75-2.77,10.75-2.34,15.78-4.55,7.08-3.11,10.53-4.37,18-1.43A36.84,36.84,0,0,1,737.45,247a15.16,15.16,0,0,0,2.65,2.83c.93.68,2,1.11,3,1.74,3.18,2.1,4.48,6,5.52,9.71,2.69,9.4,4.32,15.21-1.36,23.91l-7.86,12.05a48.21,48.21,0,0,1-7,9C726.6,311.75,718.51,313.9,710.44,314.57Z"/></g><path class="cls-5" d="M716.21,210.41a37.81,37.81,0,0,0-5.84,0c-3.71.35-7.31,1.43-11,2-2.66.4-5.42.53-7.87,1.65-3,1.36-5.13,4-7.58,6.17-3.38,3-7.43,5.2-10.69,8.33C667.58,234,665.78,241,662.93,248s-4.72,13.34-4.72,21.14a57,57,0,0,0,6.36,26.27c3.36,6.39,7.46,15.18,13.33,19.61,5.28,4,12.4,4.86,17.66,8.87a22.52,22.52,0,0,0,3.54,2.55,13.74,13.74,0,0,0,5.49,1,144.75,144.75,0,0,0,18.63-.14,46.47,46.47,0,0,0,14.23-3.92c3.52-1.48,7.59-2.3,10.48-5a21.13,21.13,0,0,1,2.52-2.4c2.09-1.41,5-1.19,7-2.76,2.83-2.25,2.07-6.17,3.74-9,1.9-3.24,5.24-5.31,7.08-8.81,1-1.88,1.78-3.94,3.34-5.38,1.06-1,2.46-1.65,3.12-2.93a6.41,6.41,0,0,0,.34-3.51l-1.11-12.55c0-11.92-4.08-24.08-9.83-34.31-2.59-4.6-5.27-9.32-9.38-12.65-2.85-2.31-6.27-3.84-9.2-6.06-1.35-1-2.6-2.19-4-3.1-4-2.5-8.34-2.38-12.82-2.73C724.51,211.71,720.42,210.68,716.21,210.41ZM716.05,309c-1.41.12-2.82.2-4.22.24a24,24,0,0,1-8.93-1,26.81,26.81,0,0,1-6.46-3.85c-6.52-4.76-13.37-9.94-16.21-17.49a48.56,48.56,0,0,0-2-5.56c-.82-1.57-2-2.93-2.83-4.49-2.79-5.21-1.33-11.65.85-17.16,2.33-5.9,6.42-16.75,12-19.62,2.1-1.08,3.8-2.8,5.84-4,4.75-2.77,10.75-2.34,15.78-4.55,7.08-3.11,10.53-4.37,18-1.43a36.84,36.84,0,0,1,15.18,11.37,15.16,15.16,0,0,0,2.65,2.83c.93.68,2,1.11,3,1.74,3.18,2.1,4.47,6.05,5.52,9.71,2.69,9.4,4.31,15.21-1.36,23.91l-7.86,12a48.21,48.21,0,0,1-7,9C732.21,306.14,724.12,308.29,716.05,309Z"/><path class="cls-6" d="M762.45,283.15a5,5,0,0,0,.27-2.78q-.44-4.94-.88-9.89c0-9.41-3.21-19-7.75-27.06-2-3.63-4.16-7.36-7.4-10-2.25-1.82-4.94-3-7.25-4.78-1.07-.81-2.05-1.73-3.18-2.45-3.13-2-6.58-1.88-10.11-2.15-3.3-.26-6.52-1.07-9.84-1.29a29.43,29.43,0,0,0-4.61,0c-2.92.27-5.76,1.13-8.67,1.56-2.1.32-4.28.42-6.21,1.3-2.35,1.08-4.05,3.16-6,4.87-2.67,2.37-5.86,4.1-8.43,6.57-4.46,4.28-5.88,9.78-8.13,15.3s-3.72,10.52-3.72,16.67a45,45,0,0,0,5,20.72c2.64,5,5.88,12,10.51,15.47,4.16,3.13,9.78,3.83,13.93,7a17,17,0,0,0,2.79,2,10.59,10.59,0,0,0,4.33.76,112.65,112.65,0,0,0,14.7-.11,36.35,36.35,0,0,0,11.22-3.09c2.78-1.17,6-1.81,8.27-4a16.8,16.8,0,0,1,2-1.89c1.65-1.11,4-.94,5.51-2.17,2.23-1.78,1.63-4.87,2.95-7.13,1.5-2.55,4.13-4.19,5.58-6.95a14.77,14.77,0,0,1,2.64-4.24C760.83,284.69,761.93,284.16,762.45,283.15Zm-9.59-3.55-7.86,12a48.21,48.21,0,0,1-7,9c-5.83,5.47-13.92,7.62-22,8.29-1.41.12-2.82.2-4.22.24a24,24,0,0,1-8.93-1,26.81,26.81,0,0,1-6.46-3.85c-6.52-4.76-13.37-9.94-16.21-17.49a48.56,48.56,0,0,0-2-5.56c-.82-1.57-2-2.93-2.83-4.49-2.79-5.21-1.33-11.65.85-17.16,2.33-5.9,6.42-16.75,12-19.62,2.1-1.08,3.8-2.8,5.84-4,4.75-2.77,10.75-2.34,15.78-4.55,7.08-3.11,10.53-4.37,18-1.43a36.84,36.84,0,0,1,15.18,11.37,15.16,15.16,0,0,0,2.65,2.83c.93.68,2,1.11,3,1.74,3.18,2.1,4.47,6.05,5.52,9.71C756.91,265.09,758.53,270.9,752.86,279.6Z"/><g class="cls-1"><path d="M730,242.65a36.68,36.68,0,0,0-5.85,0c-3.71.34-7.31,1.42-11,2-2.66.4-5.43.54-7.88,1.65-3,1.36-5.13,4-7.58,6.18-3.38,3-7.43,5.19-10.68,8.32-5.66,5.43-7.46,12.41-10.31,19.39S672,293.53,672,301.33a57.09,57.09,0,0,0,6.35,26.28c3.36,6.38,7.47,15.18,13.34,19.6,5.27,4,12.4,4.86,17.65,8.87a21.89,21.89,0,0,0,3.54,2.55,13.59,13.59,0,0,0,5.49,1,144.74,144.74,0,0,0,18.63-.14,46.18,46.18,0,0,0,14.24-3.92c3.52-1.48,7.59-2.29,10.48-5a21,21,0,0,1,2.51-2.4c2.09-1.4,5-1.19,7-2.75,2.83-2.26,2.07-6.18,3.75-9,1.89-3.24,5.23-5.31,7.07-8.81,1-1.88,1.78-3.94,3.35-5.38,1.05-1,2.46-1.65,3.11-2.93a6.41,6.41,0,0,0,.35-3.51q-.55-6.27-1.12-12.55c0-11.92-4.07-24.08-9.82-34.31-2.6-4.6-5.28-9.32-9.38-12.64-2.86-2.32-6.27-3.84-9.2-6.06-1.36-1-2.6-2.2-4-3.11-4-2.5-8.34-2.38-12.81-2.73C738.31,244,734.22,242.92,730,242.65Zm-.16,98.56c-1.41.12-2.83.19-4.22.23a24,24,0,0,1-8.94-1,26.68,26.68,0,0,1-6.46-3.85c-6.52-4.75-13.37-9.94-16.2-17.49a48.61,48.61,0,0,0-2-5.56c-.81-1.57-2-2.93-2.82-4.48-2.8-5.22-1.33-11.66.84-17.16,2.33-5.91,6.42-16.76,12-19.63,2.1-1.08,3.8-2.8,5.83-4,4.75-2.77,10.75-2.34,15.79-4.55,7.07-3.11,10.52-4.36,18-1.43a37,37,0,0,1,15.18,11.37,15.21,15.21,0,0,0,2.66,2.83c.93.68,2,1.11,3,1.74,3.18,2.1,4.48,6,5.52,9.72,2.69,9.4,4.32,15.21-1.36,23.9l-7.85,12.05a47.94,47.94,0,0,1-7,9C746,338.39,737.93,340.53,729.86,341.21Z"/></g><path class="cls-5" d="M735.63,237a36.67,36.67,0,0,0-5.85,0c-3.71.34-7.31,1.43-11,2-2.67.39-5.43.53-7.88,1.65-3,1.35-5.13,4-7.58,6.17-3.38,3-7.43,5.19-10.69,8.32-5.65,5.43-7.45,12.41-10.3,19.39s-4.71,13.35-4.71,21.14A57.06,57.06,0,0,0,684,322c3.36,6.38,7.46,15.18,13.33,19.6,5.28,4,12.4,4.87,17.66,8.87a21.89,21.89,0,0,0,3.54,2.55,13.43,13.43,0,0,0,5.49,1,144.75,144.75,0,0,0,18.63-.14,46.52,46.52,0,0,0,14.24-3.91c3.52-1.49,7.59-2.3,10.47-5a21,21,0,0,1,2.52-2.39c2.09-1.41,5-1.2,7-2.76,2.83-2.26,2.07-6.17,3.75-9,1.89-3.23,5.23-5.31,7.07-8.81,1-1.88,1.78-3.94,3.34-5.38,1.06-1,2.47-1.65,3.12-2.92a6.45,6.45,0,0,0,.35-3.52q-.56-6.27-1.12-12.55c0-11.92-4.07-24.08-9.83-34.31-2.59-4.6-5.27-9.32-9.38-12.64-2.85-2.32-6.27-3.84-9.19-6.06-1.36-1-2.6-2.2-4-3.11-4-2.5-8.34-2.38-12.81-2.73C743.92,238.34,739.83,237.31,735.63,237Zm-.16,98.56c-1.42.12-2.83.19-4.23.23a24,24,0,0,1-8.93-1,26.68,26.68,0,0,1-6.46-3.85c-6.52-4.75-13.37-9.94-16.21-17.49a49.27,49.27,0,0,0-2-5.56c-.82-1.57-2-2.92-2.83-4.48-2.79-5.22-1.32-11.66.85-17.16,2.33-5.9,6.42-16.76,12-19.63,2.1-1.07,3.8-2.8,5.84-4,4.75-2.77,10.75-2.34,15.78-4.55,7.08-3.11,10.53-4.36,18-1.43A37,37,0,0,1,762.47,268a14.85,14.85,0,0,0,2.65,2.83c.93.68,2,1.11,3,1.75,3.18,2.09,4.48,6.05,5.52,9.71,2.69,9.4,4.32,15.21-1.36,23.9l-7.86,12a48.28,48.28,0,0,1-7,9C751.62,332.78,743.53,334.92,735.47,335.6Z"/><path class="cls-6" d="M781.86,309.78a5,5,0,0,0,.27-2.77l-.87-9.9c0-9.4-3.22-19-7.76-27.06-2-3.63-4.16-7.35-7.4-10-2.25-1.82-4.94-3-7.25-4.77-1.07-.81-2.05-1.74-3.18-2.45-3.12-2-6.58-1.88-10.11-2.16-3.29-.26-6.52-1.07-9.84-1.29a30.65,30.65,0,0,0-4.61,0c-2.92.27-5.76,1.12-8.67,1.56a22.75,22.75,0,0,0-6.21,1.3c-2.35,1.07-4.05,3.15-6,4.87-2.66,2.36-5.86,4.09-8.43,6.56-4.46,4.29-5.88,9.79-8.12,15.3S690,289.54,690,295.69a45,45,0,0,0,5,20.73c2.65,5,5.88,12,10.51,15.46,4.17,3.14,9.78,3.84,13.93,7a17.5,17.5,0,0,0,2.79,2,11,11,0,0,0,4.34.76,114.29,114.29,0,0,0,14.69-.12,36.49,36.49,0,0,0,11.23-3.09c2.77-1.17,6-1.81,8.26-4a17.74,17.74,0,0,1,2-1.89c1.64-1.11,3.95-.93,5.5-2.17,2.24-1.78,1.63-4.87,3-7.13,1.49-2.55,4.12-4.19,5.58-6.95a14.74,14.74,0,0,1,2.63-4.24C780.24,311.32,781.35,310.79,781.86,309.78Zm-9.59-3.55-7.86,12a47.89,47.89,0,0,1-7,9c-5.83,5.48-13.92,7.62-22,8.3-1.42.12-2.83.19-4.23.23a24,24,0,0,1-8.93-1,26.68,26.68,0,0,1-6.46-3.85c-6.52-4.75-13.37-9.94-16.21-17.49a49.27,49.27,0,0,0-2-5.56c-.82-1.57-2-2.92-2.83-4.48-2.79-5.22-1.32-11.66.85-17.16,2.33-5.9,6.42-16.76,12-19.63,2.1-1.07,3.8-2.8,5.84-4,4.75-2.77,10.75-2.34,15.78-4.55,7.08-3.11,10.53-4.36,18-1.43A37,37,0,0,1,762.47,268a14.85,14.85,0,0,0,2.65,2.83c.93.68,2,1.11,3,1.75,3.18,2.09,4.48,6.05,5.52,9.71C776.32,291.73,778,297.54,772.27,306.23Z"/><g class="cls-1"><path d="M583.73,219.39a28.37,28.37,0,0,0-4.17.68c-2.61.67-5.06,1.85-7.62,2.66a20.86,20.86,0,0,0-5.44,2.06c-2,1.31-3.22,3.44-4.72,5.27-2.07,2.52-4.72,4.54-6.69,7.15-3.42,4.51-3.92,9.7-5.16,15s-1.87,10-1,15.62a41.21,41.21,0,0,0,7.51,18c3.11,4.18,7,10,11.73,12.5,4.22,2.24,9.4,2.07,13.61,4.34a15.76,15.76,0,0,0,2.81,1.42,9.76,9.76,0,0,0,4,.06,104.34,104.34,0,0,0,13.29-2.2,33.49,33.49,0,0,0,9.72-4.4c2.35-1.46,5.16-2.5,6.91-4.78a15.68,15.68,0,0,1,1.53-2c1.33-1.24,3.44-1.42,4.67-2.76,1.77-1.93.78-4.64,1.66-6.88,1-2.52,3.13-4.38,4.05-7.08a13.65,13.65,0,0,1,1.78-4.22c.65-.82,1.58-1.46,1.9-2.44a4.63,4.63,0,0,0-.15-2.55c-.74-2.95-1.48-5.89-2.21-8.84-1.35-8.51-5.63-16.73-10.89-23.38-2.37-3-4.82-6.06-8.13-8-2.3-1.33-4.91-2-7.25-3.29-1.08-.58-2.1-1.28-3.23-1.77-3.11-1.33-6.23-.75-9.46-.5C589.8,219.39,586.76,219.11,583.73,219.39Zm11,70.39c-1,.25-2,.46-3,.65a17.32,17.32,0,0,1-6.49.28,19.62,19.62,0,0,1-5-2C575,286,569.55,283.1,566.67,278a36.86,36.86,0,0,0-2.09-3.74c-.76-1-1.75-1.86-2.52-2.88-2.59-3.41-2.27-8.18-1.34-12.35,1-4.48,2.7-12.69,6.36-15.37,1.38-1,2.4-2.43,3.72-3.51,3.08-2.51,7.41-2.88,10.75-5,4.71-3,7-4.3,12.73-3.05a26.67,26.67,0,0,1,12.12,6.4,10.77,10.77,0,0,0,2.21,1.72c.74.38,1.57.56,2.33.91,2.51,1.14,3.88,3.81,5,6.31,3,6.41,4.8,10.37,1.73,17.22q-2.13,4.75-4.25,9.49a34.48,34.48,0,0,1-4,7.23C606,286,600.43,288.39,594.74,289.78Z"/></g><path class="cls-5" d="M587.1,214.76a25.94,25.94,0,0,0-4.17.68c-2.61.66-5,1.84-7.62,2.65a20.89,20.89,0,0,0-5.44,2.07c-2,1.3-3.21,3.43-4.72,5.26-2.07,2.52-4.71,4.55-6.69,7.15-3.42,4.52-3.92,9.7-5.16,15s-1.87,10.06-1,15.62a41.3,41.3,0,0,0,7.51,18.05c3.12,4.18,7,10,11.73,12.49,4.22,2.24,9.4,2.07,13.61,4.34A15.44,15.44,0,0,0,588,299.5a9.94,9.94,0,0,0,4,.07,104.37,104.37,0,0,0,13.29-2.21A33.49,33.49,0,0,0,615,293c2.35-1.46,5.16-2.5,6.91-4.78a16.67,16.67,0,0,1,1.53-2c1.33-1.24,3.44-1.42,4.67-2.76,1.77-1.93.78-4.64,1.66-6.87,1-2.53,3.14-4.39,4.05-7.09a13.76,13.76,0,0,1,1.78-4.22c.65-.81,1.58-1.45,1.9-2.44a4.64,4.64,0,0,0-.15-2.55c-.74-2.94-1.47-5.89-2.21-8.83-1.35-8.52-5.63-16.74-10.89-23.39-2.37-3-4.82-6.06-8.13-8-2.3-1.33-4.91-2-7.25-3.29-1.08-.58-2.1-1.28-3.23-1.76-3.11-1.34-6.23-.76-9.46-.51C593.17,214.75,590.14,214.48,587.1,214.76Zm11,70.39c-1,.24-2,.45-3,.64a17.32,17.32,0,0,1-6.49.28,19.41,19.41,0,0,1-5-2c-5.2-2.66-10.67-5.59-13.55-10.66a36.86,36.86,0,0,0-2.09-3.74c-.76-1-1.75-1.86-2.52-2.88-2.58-3.41-2.27-8.17-1.33-12.35,1-4.48,2.69-12.69,6.35-15.37,1.38-1,2.4-2.43,3.72-3.5,3.08-2.52,7.41-2.89,10.75-5,4.71-3,7-4.31,12.73-3.06a26.76,26.76,0,0,1,12.12,6.4,11,11,0,0,0,2.21,1.72c.75.39,1.57.57,2.33.91,2.51,1.14,3.88,3.82,5,6.31,3,6.41,4.8,10.38,1.73,17.23q-2.13,4.74-4.25,9.49a34.66,34.66,0,0,1-4,7.22C609.33,281.31,603.8,283.75,598.11,285.15Z"/><path class="cls-6" d="M628.33,261.48a3.73,3.73,0,0,0-.12-2q-.87-3.5-1.75-7c-1.06-6.72-4.44-13.2-8.59-18.45-1.86-2.36-3.8-4.78-6.4-6.29-1.82-1-3.88-1.6-5.72-2.59-.86-.46-1.66-1-2.55-1.39-2.46-1.06-4.91-.6-7.46-.4-2.38.19-4.78,0-7.17.19a22.59,22.59,0,0,0-3.29.54c-2.06.52-4,1.46-6,2.09a17.14,17.14,0,0,0-4.28,1.63c-1.56,1-2.54,2.71-3.72,4.15-1.64,2-3.73,3.59-5.28,5.65-2.7,3.56-3.09,7.65-4.08,11.83a30.44,30.44,0,0,0-.77,12.33A32.45,32.45,0,0,0,567.05,276c2.46,3.3,5.55,7.88,9.25,9.85,3.33,1.77,7.42,1.64,10.73,3.43a12.93,12.93,0,0,0,2.23,1.12,7.69,7.69,0,0,0,3.17.05,82.11,82.11,0,0,0,10.48-1.74,26.57,26.57,0,0,0,7.67-3.47c1.85-1.15,4.07-2,5.45-3.77a12.36,12.36,0,0,1,1.21-1.57c1-1,2.71-1.12,3.68-2.18,1.4-1.52.62-3.66,1.31-5.42.78-2,2.47-3.46,3.2-5.59a10.7,10.7,0,0,1,1.4-3.33C627.34,262.76,628.07,262.25,628.33,261.48ZM621.08,260q-2.13,4.74-4.25,9.49a34.66,34.66,0,0,1-4,7.22c-3.54,4.57-9.07,7-14.76,8.41-1,.24-2,.45-3,.64a17.38,17.38,0,0,1-6.5.28,19.41,19.41,0,0,1-5-2c-5.2-2.66-10.67-5.59-13.55-10.66a36.86,36.86,0,0,0-2.09-3.74c-.76-1-1.75-1.86-2.52-2.88-2.58-3.41-2.27-8.17-1.33-12.35,1-4.48,2.69-12.69,6.35-15.37,1.38-1,2.4-2.43,3.72-3.5,3.08-2.52,7.41-2.89,10.75-5,4.71-3,7-4.31,12.73-3.06a26.71,26.71,0,0,1,12.12,6.4,11,11,0,0,0,2.21,1.72c.75.39,1.57.57,2.33.91,2.51,1.14,3.88,3.82,5,6.31C622.33,249.21,624.15,253.18,621.08,260Z"/><g class="cls-1"><path d="M702.62,206.25a27.94,27.94,0,0,0-4.17.68c-2.61.66-5.06,1.85-7.63,2.65a21.39,21.39,0,0,0-5.44,2.07c-2,1.31-3.21,3.44-4.71,5.26-2.08,2.53-4.72,4.55-6.69,7.15-3.43,4.52-3.92,9.7-5.17,15s-1.86,10.06-1,15.63a41.25,41.25,0,0,0,7.5,18c3.12,4.18,7,10,11.73,12.49,4.22,2.25,9.41,2.08,13.61,4.34a16.24,16.24,0,0,0,2.82,1.43,9.76,9.76,0,0,0,4,.06,104.19,104.19,0,0,0,13.28-2.2,33.75,33.75,0,0,0,9.72-4.4c2.35-1.46,5.16-2.5,6.92-4.78a14.91,14.91,0,0,1,1.53-2c1.33-1.24,3.43-1.41,4.67-2.75,1.76-1.93.78-4.64,1.65-6.88,1-2.52,3.14-4.38,4.06-7.09a13.23,13.23,0,0,1,1.78-4.21c.64-.82,1.57-1.46,1.89-2.45a4.64,4.64,0,0,0-.15-2.55q-1.1-4.41-2.21-8.83c-1.34-8.51-5.63-16.73-10.89-23.39-2.37-3-4.82-6.06-8.12-8-2.3-1.33-4.91-2-7.26-3.29-1.08-.58-2.1-1.27-3.23-1.76-3.11-1.34-6.22-.76-9.46-.5C708.69,206.24,705.65,206,702.62,206.25Zm11,70.39c-1,.25-2,.46-3,.64a17.38,17.38,0,0,1-6.5.29,19.55,19.55,0,0,1-5-2c-5.19-2.66-10.67-5.59-13.55-10.66a34,34,0,0,0-2.08-3.74c-.76-1-1.76-1.87-2.53-2.89-2.58-3.41-2.26-8.17-1.33-12.34,1-4.48,2.69-12.69,6.36-15.37,1.37-1,2.39-2.43,3.71-3.51,3.08-2.51,7.41-2.88,10.76-5,4.7-3,7-4.3,12.72-3.06a26.58,26.58,0,0,1,12.12,6.41,10.83,10.83,0,0,0,2.22,1.72c.74.38,1.57.56,2.33.91,2.5,1.14,3.88,3.81,5,6.31,3,6.41,4.79,10.37,1.72,17.22q-2.12,4.74-4.25,9.49a34.49,34.49,0,0,1-4,7.23C724.84,272.8,719.31,275.25,713.63,276.64Z"/></g><path class="cls-5" d="M706,201.61a28.15,28.15,0,0,0-4.17.68c-2.61.67-5.06,1.85-7.63,2.66a21.14,21.14,0,0,0-5.44,2.06c-2,1.31-3.21,3.44-4.71,5.27-2.07,2.52-4.72,4.54-6.69,7.15-3.42,4.51-3.92,9.7-5.17,15s-1.86,10.05-1,15.62a41.2,41.2,0,0,0,7.5,18c3.12,4.18,7,10,11.74,12.5,4.21,2.24,9.4,2.07,13.6,4.34a16.93,16.93,0,0,0,2.82,1.42,9.76,9.76,0,0,0,4,.06,104.19,104.19,0,0,0,13.28-2.2,33.67,33.67,0,0,0,9.73-4.4c2.34-1.46,5.16-2.5,6.91-4.78a14.81,14.81,0,0,1,1.53-2c1.33-1.24,3.44-1.42,4.67-2.76,1.76-1.93.78-4.64,1.65-6.88,1-2.52,3.14-4.38,4.06-7.08a13.19,13.19,0,0,1,1.78-4.22c.65-.82,1.57-1.46,1.89-2.44a4.63,4.63,0,0,0-.15-2.55c-.73-3-1.47-5.89-2.21-8.84-1.34-8.51-5.63-16.73-10.89-23.38-2.37-3-4.82-6.06-8.12-8-2.3-1.33-4.91-2-7.25-3.29-1.09-.58-2.11-1.28-3.24-1.77-3.1-1.33-6.22-.75-9.45-.5C712.06,201.61,709,201.33,706,201.61ZM717,272c-1,.25-2,.46-3,.65a17.33,17.33,0,0,1-6.49.28,19.48,19.48,0,0,1-5-2c-5.19-2.66-10.67-5.59-13.55-10.66a35,35,0,0,0-2.08-3.74c-.76-1-1.76-1.87-2.53-2.88-2.58-3.41-2.26-8.18-1.33-12.35,1-4.48,2.69-12.69,6.36-15.37,1.37-1,2.39-2.43,3.71-3.51,3.08-2.51,7.42-2.88,10.76-5,4.7-3,7-4.3,12.72-3.05a26.65,26.65,0,0,1,12.13,6.4,10.77,10.77,0,0,0,2.21,1.72c.74.38,1.57.57,2.33.91,2.5,1.14,3.88,3.81,5,6.31,3,6.41,4.79,10.37,1.72,17.22q-2.12,4.76-4.25,9.49a34,34,0,0,1-4,7.23C728.21,268.17,722.68,270.61,717,272Z"/><path class="cls-6" d="M747.21,248.33a3.64,3.64,0,0,0-.12-2l-1.74-7c-1.06-6.72-4.44-13.2-8.59-18.45-1.87-2.36-3.8-4.78-6.41-6.29-1.81-1.05-3.87-1.6-5.72-2.59-.85-.46-1.66-1-2.55-1.39-2.45-1.06-4.91-.6-7.46-.4-2.38.19-4.77,0-7.17.19a21,21,0,0,0-3.28.54c-2.06.52-4,1.45-6,2.09a16.33,16.33,0,0,0-4.29,1.63c-1.56,1-2.53,2.71-3.72,4.15-1.63,2-3.72,3.59-5.28,5.64-2.7,3.56-3.09,7.65-4.07,11.84a30.4,30.4,0,0,0-.78,12.32,32.68,32.68,0,0,0,5.92,14.24c2.46,3.29,5.56,7.88,9.26,9.85,3.32,1.77,7.41,1.64,10.73,3.42a11.85,11.85,0,0,0,2.22,1.12,7.73,7.73,0,0,0,3.18.06,82.11,82.11,0,0,0,10.48-1.74,26.57,26.57,0,0,0,7.67-3.47c1.85-1.15,4.07-2,5.45-3.77a11.63,11.63,0,0,1,1.2-1.57c1-1,2.72-1.12,3.69-2.18,1.39-1.52.61-3.66,1.3-5.42.78-2,2.48-3.46,3.2-5.59a10.49,10.49,0,0,1,1.41-3.33C746.23,249.62,747,249.11,747.21,248.33ZM740,246.88q-2.12,4.76-4.25,9.49a34,34,0,0,1-4,7.23c-3.55,4.57-9.08,7-14.76,8.4-1,.25-2,.46-3,.65a17.33,17.33,0,0,1-6.49.28,19.48,19.48,0,0,1-5-2c-5.19-2.66-10.67-5.59-13.55-10.66a35,35,0,0,0-2.08-3.74c-.76-1-1.76-1.87-2.53-2.88-2.58-3.41-2.26-8.18-1.33-12.35,1-4.48,2.69-12.69,6.36-15.37,1.37-1,2.39-2.43,3.71-3.51,3.08-2.51,7.42-2.88,10.76-5,4.7-3,7-4.3,12.72-3.05a26.65,26.65,0,0,1,12.13,6.4,10.77,10.77,0,0,0,2.21,1.72c.74.38,1.57.57,2.33.91,2.5,1.14,3.88,3.81,5,6.31C741.22,236.07,743,240,740,246.88Z"/><g class="cls-1"><path d="M611.82,206.85a28,28,0,0,0-4.16.68c-2.61.66-5.06,1.85-7.63,2.65a21.25,21.25,0,0,0-5.44,2.07c-2,1.31-3.21,3.43-4.71,5.26-2.08,2.53-4.72,4.55-6.7,7.15-3.42,4.52-3.92,9.7-5.16,15s-1.86,10.06-1,15.63a41.25,41.25,0,0,0,7.5,18c3.12,4.18,7,10,11.73,12.49,4.22,2.25,9.4,2.08,13.61,4.34a15.77,15.77,0,0,0,2.81,1.42,9.64,9.64,0,0,0,4,.07,104.48,104.48,0,0,0,13.28-2.2,33.51,33.51,0,0,0,9.72-4.41c2.35-1.45,5.16-2.49,6.91-4.77a16.78,16.78,0,0,1,1.53-2c1.33-1.24,3.44-1.41,4.67-2.75,1.77-1.93.78-4.64,1.66-6.88,1-2.52,3.14-4.38,4.06-7.09a13.38,13.38,0,0,1,1.78-4.22c.64-.81,1.57-1.45,1.89-2.44a4.64,4.64,0,0,0-.15-2.55c-.74-2.94-1.47-5.88-2.21-8.83-1.35-8.51-5.63-16.73-10.89-23.39-2.37-3-4.82-6.06-8.13-8-2.3-1.33-4.91-2-7.25-3.29-1.08-.58-2.1-1.27-3.23-1.76-3.11-1.34-6.22-.76-9.46-.5C617.89,206.84,614.86,206.57,611.82,206.85Zm11,70.39c-1,.25-2,.46-3,.64a17.39,17.39,0,0,1-6.5.29,19.77,19.77,0,0,1-5-2c-5.19-2.66-10.67-5.59-13.55-10.67a34.88,34.88,0,0,0-2.09-3.73c-.76-1-1.75-1.87-2.52-2.89-2.58-3.41-2.27-8.17-1.33-12.34,1-4.48,2.69-12.69,6.35-15.37,1.38-1,2.4-2.43,3.72-3.51,3.08-2.51,7.41-2.88,10.76-5,4.7-3,7-4.3,12.72-3.06A26.58,26.58,0,0,1,634.49,226a10.83,10.83,0,0,0,2.22,1.72c.74.38,1.56.56,2.32.91,2.51,1.14,3.88,3.81,5,6.31,3,6.41,4.8,10.37,1.73,17.22q-2.13,4.74-4.25,9.49a35,35,0,0,1-4,7.23C634.05,273.4,628.52,275.85,622.83,277.24Z"/></g><path class="cls-5" d="M615.2,202.21a27.94,27.94,0,0,0-4.17.68c-2.61.67-5.06,1.85-7.63,2.66a21,21,0,0,0-5.44,2.06c-2,1.31-3.21,3.44-4.71,5.27-2.08,2.52-4.72,4.54-6.69,7.15-3.43,4.51-3.93,9.7-5.17,15s-1.86,10.05-1,15.62a41.25,41.25,0,0,0,7.5,18c3.12,4.18,7,10,11.73,12.5,4.22,2.24,9.41,2.07,13.61,4.34a16.93,16.93,0,0,0,2.82,1.42,9.76,9.76,0,0,0,4,.06,104.19,104.19,0,0,0,13.28-2.2,33.49,33.49,0,0,0,9.72-4.4c2.35-1.46,5.16-2.5,6.92-4.78a15.61,15.61,0,0,1,1.52-2c1.34-1.25,3.44-1.42,4.68-2.76,1.76-1.93.78-4.64,1.65-6.88,1-2.52,3.14-4.38,4.06-7.08a13.19,13.19,0,0,1,1.78-4.22c.64-.82,1.57-1.46,1.89-2.44a4.63,4.63,0,0,0-.15-2.55l-2.21-8.84c-1.34-8.51-5.63-16.73-10.89-23.38-2.37-3-4.82-6.06-8.13-8-2.29-1.33-4.91-2-7.25-3.29-1.08-.58-2.1-1.28-3.23-1.77-3.11-1.33-6.22-.75-9.46-.5C621.27,202.21,618.23,201.93,615.2,202.21Zm11,70.39c-1,.25-2,.46-3,.65a17.6,17.6,0,0,1-6.5.28,19.41,19.41,0,0,1-5-2c-5.19-2.66-10.67-5.59-13.55-10.66a35,35,0,0,0-2.08-3.74c-.76-1-1.76-1.87-2.53-2.88-2.58-3.41-2.26-8.18-1.33-12.35,1-4.48,2.69-12.69,6.35-15.37,1.38-1,2.4-2.43,3.72-3.51,3.08-2.51,7.41-2.88,10.76-5,4.7-3,7-4.3,12.72-3.06a26.68,26.68,0,0,1,12.12,6.41,10.83,10.83,0,0,0,2.22,1.72c.74.38,1.57.56,2.33.91,2.5,1.14,3.87,3.81,5,6.31,3,6.41,4.79,10.37,1.72,17.22q-2.13,4.76-4.25,9.49A34.44,34.44,0,0,1,641,264.2C637.42,268.77,631.89,271.21,626.21,272.6Z"/><path class="cls-6" d="M656.42,248.93a3.64,3.64,0,0,0-.12-2l-1.74-7c-1.06-6.72-4.44-13.2-8.59-18.45-1.87-2.36-3.8-4.78-6.41-6.29-1.82-1.05-3.87-1.6-5.72-2.59-.85-.46-1.66-1-2.55-1.39-2.45-1.06-4.91-.6-7.46-.4-2.38.19-4.78,0-7.17.19a21.32,21.32,0,0,0-3.29.54c-2.06.52-4,1.45-6,2.09a16.33,16.33,0,0,0-4.29,1.63c-1.56,1-2.54,2.71-3.72,4.15-1.64,2-3.72,3.59-5.28,5.64-2.7,3.56-3.09,7.65-4.07,11.84a30.4,30.4,0,0,0-.78,12.32,32.44,32.44,0,0,0,5.92,14.24c2.46,3.29,5.55,7.88,9.25,9.85,3.33,1.77,7.42,1.64,10.74,3.42a11.85,11.85,0,0,0,2.22,1.12,7.73,7.73,0,0,0,3.18.06A82.69,82.69,0,0,0,631,276.19a26.4,26.4,0,0,0,7.66-3.47c1.85-1.15,4.07-2,5.46-3.77a12.39,12.39,0,0,1,1.2-1.58c1-1,2.72-1.11,3.69-2.17,1.39-1.52.61-3.66,1.3-5.42.78-2,2.48-3.46,3.2-5.59a10.49,10.49,0,0,1,1.41-3.33C655.44,250.22,656.17,249.71,656.42,248.93Zm-7.25-1.45q-2.13,4.76-4.25,9.49A34.44,34.44,0,0,1,641,264.2c-3.55,4.57-9.08,7-14.76,8.4-1,.25-2,.46-3,.65a17.6,17.6,0,0,1-6.5.28,19.41,19.41,0,0,1-5-2c-5.19-2.66-10.67-5.59-13.55-10.66a35,35,0,0,0-2.08-3.74c-.76-1-1.76-1.87-2.53-2.88-2.58-3.41-2.26-8.18-1.33-12.35,1-4.48,2.69-12.69,6.35-15.37,1.38-1,2.4-2.43,3.72-3.51,3.08-2.51,7.41-2.88,10.76-5,4.7-3,7-4.3,12.72-3.06a26.68,26.68,0,0,1,12.12,6.41,10.83,10.83,0,0,0,2.22,1.72c.74.38,1.57.56,2.33.91,2.5,1.14,3.87,3.81,5,6.31C650.43,236.67,652.24,240.63,649.17,247.48Z"/><g class="cls-1"><path d="M670.37,207.44a27.94,27.94,0,0,0-4.17.68c-2.61.66-5.06,1.85-7.63,2.66a21,21,0,0,0-5.44,2.06c-2,1.31-3.21,3.44-4.71,5.26-2.08,2.53-4.72,4.55-6.69,7.16-3.43,4.51-3.92,9.69-5.17,15s-1.86,10.06-1,15.63a41.25,41.25,0,0,0,7.5,18c3.12,4.18,7,10,11.73,12.5,4.22,2.24,9.41,2.07,13.61,4.33a16.24,16.24,0,0,0,2.82,1.43,9.76,9.76,0,0,0,4,.06,104.19,104.19,0,0,0,13.28-2.2,33.75,33.75,0,0,0,9.72-4.4c2.35-1.46,5.17-2.5,6.92-4.78a14.91,14.91,0,0,1,1.53-2c1.33-1.24,3.44-1.41,4.67-2.75,1.76-1.93.78-4.64,1.65-6.88,1-2.52,3.14-4.38,4.06-7.09a13.23,13.23,0,0,1,1.78-4.21c.64-.82,1.57-1.46,1.89-2.45a4.6,4.6,0,0,0-.15-2.54c-.73-2.95-1.47-5.89-2.21-8.84-1.34-8.51-5.63-16.73-10.89-23.39-2.37-3-4.82-6.06-8.12-8-2.3-1.33-4.91-2-7.26-3.29-1.08-.58-2.1-1.27-3.23-1.76-3.11-1.34-6.22-.75-9.46-.5C676.44,207.43,673.4,207.16,670.37,207.44Zm11,70.39c-1,.25-2,.46-3,.64a17.38,17.38,0,0,1-6.5.29,19.55,19.55,0,0,1-5-2c-5.19-2.66-10.67-5.59-13.55-10.66a34,34,0,0,0-2.08-3.74c-.76-1-1.76-1.87-2.53-2.89-2.58-3.41-2.26-8.17-1.33-12.34,1-4.48,2.69-12.69,6.36-15.37,1.37-1,2.39-2.43,3.71-3.51,3.08-2.51,7.41-2.88,10.76-5,4.7-3,7-4.3,12.72-3.06A26.58,26.58,0,0,1,693,226.55a10.83,10.83,0,0,0,2.22,1.72c.74.38,1.57.56,2.33.91,2.5,1.14,3.88,3.81,5,6.31,3,6.41,4.79,10.37,1.72,17.22q-2.12,4.75-4.25,9.49a35,35,0,0,1-4,7.23C692.59,274,687.06,276.44,681.38,277.83Z"/></g><path class="cls-5" d="M673.74,202.8a28.15,28.15,0,0,0-4.17.68c-2.61.67-5.06,1.85-7.63,2.66a21,21,0,0,0-5.44,2.06c-2,1.31-3.21,3.44-4.71,5.27-2.07,2.52-4.72,4.54-6.69,7.15-3.43,4.51-3.92,9.7-5.17,15s-1.86,10.05-1,15.62a41.2,41.2,0,0,0,7.5,18c3.12,4.18,7,10,11.74,12.5,4.21,2.24,9.4,2.07,13.6,4.34a16.19,16.19,0,0,0,2.82,1.42,9.76,9.76,0,0,0,4,.06,104.19,104.19,0,0,0,13.28-2.2,33.67,33.67,0,0,0,9.73-4.4c2.34-1.46,5.16-2.5,6.91-4.78a14.81,14.81,0,0,1,1.53-2c1.33-1.24,3.44-1.42,4.67-2.76,1.77-1.93.78-4.64,1.65-6.87,1-2.53,3.14-4.39,4.06-7.09a13.19,13.19,0,0,1,1.78-4.22c.65-.81,1.57-1.46,1.89-2.44a4.63,4.63,0,0,0-.15-2.55c-.73-2.95-1.47-5.89-2.21-8.84-1.34-8.51-5.63-16.73-10.89-23.38-2.37-3-4.82-6.06-8.12-8-2.3-1.33-4.91-2-7.25-3.29-1.09-.58-2.11-1.28-3.24-1.76-3.1-1.34-6.22-.76-9.45-.51C679.81,202.8,676.77,202.52,673.74,202.8Zm11,70.39c-1,.25-2,.46-3,.65a17.32,17.32,0,0,1-6.49.28,19.48,19.48,0,0,1-5-2c-5.19-2.66-10.67-5.59-13.55-10.66a35,35,0,0,0-2.08-3.74c-.76-1-1.75-1.86-2.53-2.88-2.58-3.41-2.26-8.18-1.33-12.35,1-4.48,2.69-12.69,6.36-15.37,1.37-1,2.39-2.43,3.71-3.51,3.08-2.51,7.42-2.88,10.76-5,4.7-3,7-4.3,12.73-3.05a26.67,26.67,0,0,1,12.12,6.4,10.77,10.77,0,0,0,2.21,1.72c.74.38,1.57.57,2.33.91,2.5,1.14,3.88,3.81,5,6.31,3,6.41,4.79,10.37,1.72,17.22q-2.12,4.76-4.25,9.49a34,34,0,0,1-4,7.23C696,269.36,690.43,271.8,684.75,273.19Z"/><path class="cls-6" d="M715,249.52a3.64,3.64,0,0,0-.12-2l-1.74-7c-1.06-6.72-4.44-13.2-8.59-18.45-1.87-2.36-3.8-4.78-6.41-6.29-1.81-1.05-3.87-1.6-5.72-2.59-.85-.46-1.66-1-2.55-1.39-2.45-1.06-4.91-.6-7.46-.4-2.38.19-4.77,0-7.17.19a21,21,0,0,0-3.28.54c-2.06.52-4,1.45-6,2.09a16.33,16.33,0,0,0-4.29,1.63c-1.56,1-2.54,2.71-3.72,4.15-1.63,2-3.72,3.59-5.28,5.64-2.7,3.56-3.09,7.65-4.07,11.84a30.4,30.4,0,0,0-.78,12.32,32.68,32.68,0,0,0,5.92,14.24c2.46,3.29,5.56,7.88,9.26,9.85,3.32,1.77,7.41,1.64,10.73,3.42a11.9,11.9,0,0,0,2.22,1.13,7.91,7.91,0,0,0,3.18,0,82.4,82.4,0,0,0,10.48-1.74,26.57,26.57,0,0,0,7.67-3.47c1.85-1.15,4.07-2,5.45-3.77a11.63,11.63,0,0,1,1.2-1.57c1-1,2.72-1.12,3.69-2.18,1.39-1.52.61-3.66,1.3-5.42.78-2,2.48-3.46,3.2-5.59a10.49,10.49,0,0,1,1.41-3.33C714,250.81,714.71,250.3,715,249.52Zm-7.25-1.45q-2.12,4.76-4.25,9.49a34,34,0,0,1-4,7.23c-3.55,4.57-9.08,7-14.76,8.4-1,.25-2,.46-3,.65a17.32,17.32,0,0,1-6.49.28,19.48,19.48,0,0,1-5-2c-5.19-2.66-10.67-5.59-13.55-10.66a35,35,0,0,0-2.08-3.74c-.76-1-1.75-1.86-2.53-2.88-2.58-3.41-2.26-8.18-1.33-12.35,1-4.48,2.69-12.69,6.36-15.37,1.37-1,2.39-2.43,3.71-3.51,3.08-2.51,7.42-2.88,10.76-5,4.7-3,7-4.3,12.73-3.05a26.67,26.67,0,0,1,12.12,6.4,10.77,10.77,0,0,0,2.21,1.72c.74.38,1.57.57,2.33.91,2.5,1.14,3.88,3.81,5,6.31C709,237.26,710.78,241.22,707.71,248.07Z"/><g class="cls-1"><path d="M741.94,213.73a27.94,27.94,0,0,0-4.17.68c-2.61.66-5.06,1.85-7.63,2.65a21.25,21.25,0,0,0-5.44,2.07c-2,1.31-3.21,3.43-4.71,5.26-2.08,2.53-4.72,4.55-6.7,7.15-3.42,4.52-3.92,9.7-5.16,15s-1.86,10.06-1,15.63a41.25,41.25,0,0,0,7.5,18c3.12,4.18,7,10,11.73,12.49,4.22,2.25,9.4,2.08,13.61,4.34a15.77,15.77,0,0,0,2.81,1.42,9.64,9.64,0,0,0,4,.07,104.19,104.19,0,0,0,13.28-2.2,33.51,33.51,0,0,0,9.72-4.41c2.35-1.45,5.16-2.49,6.92-4.77a15.71,15.71,0,0,1,1.52-2c1.34-1.24,3.44-1.41,4.67-2.75,1.77-1.93.78-4.64,1.66-6.88,1-2.52,3.14-4.38,4.06-7.09a13.38,13.38,0,0,1,1.78-4.22c.64-.81,1.57-1.45,1.89-2.44a4.64,4.64,0,0,0-.15-2.55c-.74-2.94-1.47-5.88-2.21-8.83-1.35-8.51-5.63-16.73-10.89-23.39-2.37-3-4.82-6.06-8.13-8-2.3-1.33-4.91-2-7.25-3.29-1.08-.58-2.1-1.27-3.23-1.76-3.11-1.34-6.22-.76-9.46-.5C748,213.72,745,213.45,741.94,213.73Zm11,70.39c-1,.25-2,.46-3,.64a17.39,17.39,0,0,1-6.5.29,19.41,19.41,0,0,1-5-2c-5.19-2.66-10.67-5.59-13.55-10.67a33.23,33.23,0,0,0-2.09-3.73c-.76-1-1.75-1.87-2.52-2.89-2.58-3.41-2.26-8.17-1.33-12.34,1-4.48,2.69-12.69,6.35-15.37,1.38-1,2.4-2.43,3.72-3.51,3.08-2.51,7.41-2.88,10.76-5,4.7-3,7-4.3,12.72-3.06a26.58,26.58,0,0,1,12.12,6.41,10.83,10.83,0,0,0,2.22,1.72c.74.38,1.57.56,2.32.91,2.51,1.14,3.88,3.81,5,6.31,3,6.41,4.8,10.37,1.73,17.22q-2.13,4.74-4.25,9.49a35,35,0,0,1-4,7.23C764.16,280.28,758.63,282.73,752.94,284.12Z"/></g><path class="cls-5" d="M745.31,209.09a27.94,27.94,0,0,0-4.17.68c-2.61.67-5.06,1.85-7.63,2.66a21,21,0,0,0-5.44,2.06c-2,1.31-3.21,3.44-4.71,5.27-2.08,2.52-4.72,4.54-6.69,7.15-3.43,4.51-3.92,9.7-5.17,15s-1.86,10.05-1,15.62a41.2,41.2,0,0,0,7.5,18c3.12,4.18,7,10,11.73,12.5,4.22,2.24,9.41,2.07,13.61,4.33a16.24,16.24,0,0,0,2.82,1.43,9.76,9.76,0,0,0,4,.06,104.19,104.19,0,0,0,13.28-2.2,33.49,33.49,0,0,0,9.72-4.4c2.35-1.46,5.16-2.5,6.92-4.78a15.61,15.61,0,0,1,1.52-2c1.34-1.24,3.44-1.42,4.68-2.76,1.76-1.93.78-4.64,1.65-6.88,1-2.52,3.14-4.38,4.06-7.08a13.19,13.19,0,0,1,1.78-4.22c.64-.82,1.57-1.46,1.89-2.44a4.63,4.63,0,0,0-.15-2.55c-.73-2.95-1.47-5.89-2.21-8.84-1.34-8.51-5.63-16.73-10.89-23.38-2.37-3-4.82-6.06-8.12-8-2.3-1.33-4.92-2-7.26-3.29-1.08-.58-2.1-1.28-3.23-1.77-3.11-1.33-6.22-.75-9.46-.5C751.38,209.09,748.34,208.81,745.31,209.09Zm11,70.39c-1,.25-2,.46-3,.65a17.38,17.38,0,0,1-6.5.28,19.55,19.55,0,0,1-5-2c-5.19-2.66-10.67-5.59-13.55-10.66a34,34,0,0,0-2.08-3.74c-.76-1-1.76-1.87-2.53-2.88-2.58-3.41-2.26-8.18-1.33-12.35,1-4.48,2.69-12.69,6.35-15.37,1.38-1,2.4-2.43,3.72-3.51,3.08-2.51,7.41-2.88,10.76-5,4.7-3,7-4.3,12.72-3A26.57,26.57,0,0,1,768,228.2a10.83,10.83,0,0,0,2.22,1.72c.74.38,1.57.56,2.33.91,2.5,1.14,3.87,3.81,5,6.31,3,6.41,4.79,10.37,1.72,17.22q-2.12,4.75-4.25,9.49a34.44,34.44,0,0,1-3.95,7.23C767.53,275.65,762,278.09,756.32,279.48Z"/><path class="cls-6" d="M786.53,255.81a3.64,3.64,0,0,0-.12-2l-1.74-7c-1.06-6.72-4.44-13.2-8.59-18.45-1.87-2.36-3.8-4.78-6.41-6.29-1.81-1-3.87-1.6-5.72-2.59-.85-.46-1.66-1-2.55-1.39-2.45-1.06-4.91-.6-7.46-.4-2.38.19-4.78,0-7.17.19a21.32,21.32,0,0,0-3.29.54c-2.06.52-4,1.45-6,2.09a16.33,16.33,0,0,0-4.29,1.63c-1.56,1-2.54,2.71-3.72,4.15-1.64,2-3.72,3.59-5.28,5.64-2.7,3.56-3.09,7.65-4.07,11.84a30.4,30.4,0,0,0-.78,12.32,32.68,32.68,0,0,0,5.92,14.24c2.46,3.29,5.55,7.88,9.26,9.85,3.32,1.77,7.41,1.64,10.73,3.42a11.85,11.85,0,0,0,2.22,1.12,7.73,7.73,0,0,0,3.18.06,82.69,82.69,0,0,0,10.48-1.74,26.4,26.4,0,0,0,7.66-3.47c1.85-1.15,4.07-2,5.46-3.77a11.63,11.63,0,0,1,1.2-1.57c1-1,2.72-1.12,3.69-2.18,1.39-1.52.61-3.66,1.3-5.42.78-2,2.48-3.46,3.2-5.59a10.49,10.49,0,0,1,1.41-3.33C785.55,257.1,786.28,256.59,786.53,255.81Zm-7.25-1.45q-2.12,4.75-4.25,9.49a34.44,34.44,0,0,1-3.95,7.23c-3.55,4.57-9.08,7-14.76,8.4-1,.25-2,.46-3,.65a17.38,17.38,0,0,1-6.5.28,19.55,19.55,0,0,1-5-2c-5.19-2.66-10.67-5.59-13.55-10.66a34,34,0,0,0-2.08-3.74c-.76-1-1.76-1.87-2.53-2.88-2.58-3.41-2.26-8.18-1.33-12.35,1-4.48,2.69-12.69,6.35-15.37,1.38-1,2.4-2.43,3.72-3.51,3.08-2.51,7.41-2.88,10.76-5,4.7-3,7-4.3,12.72-3A26.57,26.57,0,0,1,768,228.2a10.83,10.83,0,0,0,2.22,1.72c.74.38,1.57.56,2.33.91,2.5,1.14,3.87,3.81,5,6.31C780.54,243.55,782.35,247.51,779.28,254.36Z"/><g class="cls-1"><path d="M835.58,303.71a27.65,27.65,0,0,0-4.08,0c-2.59.24-5.11,1-7.68,1.39a20.11,20.11,0,0,0-5.51,1.15c-2.08,1-3.58,2.79-5.29,4.31-2.36,2.1-5.19,3.63-7.47,5.82-3.95,3.79-5.21,8.67-7.2,13.55s-3.29,9.32-3.29,14.76a39.93,39.93,0,0,0,4.44,18.37c2.34,4.46,5.21,10.6,9.31,13.69,3.69,2.78,8.67,3.4,12.34,6.2a15.15,15.15,0,0,0,2.47,1.78,9.58,9.58,0,0,0,3.84.68,102.84,102.84,0,0,0,13-.1,32.58,32.58,0,0,0,9.94-2.74c2.46-1,5.31-1.61,7.32-3.52a14.57,14.57,0,0,1,1.76-1.67c1.46-1,3.5-.83,4.88-1.93,2-1.57,1.45-4.31,2.62-6.31,1.32-2.26,3.66-3.71,4.94-6.16a13,13,0,0,1,2.34-3.76c.74-.68,1.72-1.15,2.17-2a4.56,4.56,0,0,0,.25-2.46l-.78-8.76c0-8.34-2.85-16.83-6.87-24-1.81-3.21-3.69-6.51-6.55-8.83-2-1.62-4.39-2.69-6.43-4.24-1-.72-1.82-1.53-2.82-2.17-2.77-1.75-5.83-1.66-9-1.91C841.38,304.62,838.52,303.9,835.58,303.71Zm-.11,68.87c-1,.08-2,.13-3,.16a16.59,16.59,0,0,1-6.24-.71,18.7,18.7,0,0,1-4.52-2.69c-4.55-3.32-9.34-6.94-11.32-12.22a33.54,33.54,0,0,0-1.43-3.89c-.57-1.09-1.39-2-2-3.13-1.95-3.65-.93-8.14.59-12,1.63-4.12,4.49-11.71,8.39-13.71,1.46-.75,2.65-2,4.08-2.79,3.32-1.93,7.51-1.63,11-3.18,5-2.17,7.36-3.05,12.62-1a25.77,25.77,0,0,1,10.6,7.95,10.49,10.49,0,0,0,1.85,2c.65.48,1.42.78,2.09,1.22,2.22,1.47,3.13,4.23,3.86,6.79,1.88,6.57,3,10.62-.95,16.7l-5.49,8.42a33.64,33.64,0,0,1-4.87,6.3C846.76,370.61,841.11,372.11,835.47,372.58Z"/></g><path class="cls-5" d="M839.5,299.79a26.28,26.28,0,0,0-4.08,0c-2.59.23-5.11,1-7.69,1.38a20,20,0,0,0-5.5,1.15c-2.08.95-3.58,2.79-5.29,4.31-2.36,2.1-5.19,3.63-7.47,5.82-4,3.79-5.21,8.67-7.2,13.55A37.55,37.55,0,0,0,799,340.8a39.9,39.9,0,0,0,4.45,18.36c2.34,4.46,5.21,10.6,9.31,13.7,3.69,2.78,8.67,3.39,12.34,6.19a14.73,14.73,0,0,0,2.47,1.78,9.58,9.58,0,0,0,3.84.68,102.84,102.84,0,0,0,13-.1,32.58,32.58,0,0,0,9.94-2.74c2.46-1,5.31-1.6,7.32-3.52a15.4,15.4,0,0,1,1.76-1.67c1.46-1,3.5-.83,4.88-1.93,2-1.57,1.44-4.31,2.62-6.31,1.32-2.26,3.65-3.71,4.94-6.16a13,13,0,0,1,2.34-3.76c.74-.67,1.72-1.15,2.17-2a4.55,4.55,0,0,0,.25-2.46l-.78-8.76c0-8.33-2.85-16.83-6.87-24-1.81-3.21-3.69-6.51-6.56-8.83-2-1.62-4.38-2.69-6.42-4.24-1-.71-1.82-1.53-2.82-2.17-2.77-1.74-5.83-1.66-9-1.91C845.3,300.7,842.44,300,839.5,299.79Zm-.11,68.87c-1,.08-2,.13-2.95.16a16.57,16.57,0,0,1-6.24-.71,18.7,18.7,0,0,1-4.52-2.69c-4.55-3.32-9.34-6.94-11.32-12.22a34.58,34.58,0,0,0-1.43-3.88c-.57-1.1-1.39-2.05-2-3.14-2-3.64-.93-8.14.59-12,1.63-4.12,4.48-11.71,8.39-13.71,1.46-.75,2.65-2,4.08-2.79,3.31-1.93,7.51-1.63,11-3.18,5-2.17,7.36-3.05,12.61-1a25.73,25.73,0,0,1,10.61,7.95,10.49,10.49,0,0,0,1.85,2c.65.48,1.42.78,2.09,1.22,2.22,1.47,3.13,4.23,3.86,6.79,1.88,6.57,3,10.63-.95,16.7l-5.49,8.42a34,34,0,0,1-4.87,6.31C850.68,366.69,845,368.19,839.39,368.66Z"/><path class="cls-6" d="M871.81,350.62a3.53,3.53,0,0,0,.19-1.94c-.21-2.3-.41-4.61-.62-6.91A39.65,39.65,0,0,0,866,322.86c-1.43-2.54-2.91-5.14-5.17-7-1.58-1.27-3.46-2.12-5.07-3.34-.75-.57-1.43-1.21-2.23-1.71-2.18-1.38-4.59-1.31-7.06-1.51-2.3-.18-4.55-.74-6.87-.9a21.5,21.5,0,0,0-3.22,0c-2.05.19-4,.79-6.06,1.09a15.83,15.83,0,0,0-4.34.91c-1.64.75-2.83,2.2-4.18,3.4-1.86,1.66-4.09,2.86-5.89,4.59-3.11,3-4.11,6.84-5.68,10.69a29.48,29.48,0,0,0-2.6,11.65,31.48,31.48,0,0,0,3.51,14.48c1.85,3.52,4.11,8.36,7.35,10.8,2.9,2.19,6.83,2.68,9.72,4.89a11.72,11.72,0,0,0,2,1.41,7.7,7.7,0,0,0,3,.53,80,80,0,0,0,10.27-.08,25.74,25.74,0,0,0,7.85-2.16c1.94-.82,4.18-1.27,5.77-2.77a10.82,10.82,0,0,1,1.39-1.32c1.15-.78,2.76-.66,3.84-1.53,1.56-1.24,1.14-3.4,2.07-5,1-1.78,2.88-2.92,3.9-4.85a10.1,10.1,0,0,1,1.84-3C870.67,351.7,871.45,351.33,871.81,350.62Zm-6.7-2.48-5.49,8.42a34,34,0,0,1-4.87,6.31c-4.07,3.82-9.72,5.32-15.36,5.79-1,.08-2,.13-2.95.16a16.57,16.57,0,0,1-6.24-.71,18.7,18.7,0,0,1-4.52-2.69c-4.55-3.32-9.34-6.94-11.32-12.22a34.58,34.58,0,0,0-1.43-3.88c-.57-1.1-1.39-2.05-2-3.14-2-3.64-.93-8.14.59-12,1.63-4.12,4.48-11.71,8.39-13.71,1.46-.75,2.65-2,4.08-2.79,3.31-1.93,7.51-1.63,11-3.18,5-2.17,7.36-3.05,12.61-1a25.73,25.73,0,0,1,10.61,7.95,10.49,10.49,0,0,0,1.85,2c.65.48,1.42.78,2.09,1.22,2.22,1.47,3.13,4.23,3.86,6.79C867.94,338,869.07,342.07,865.11,348.14Z"/><g class="cls-1"><path d="M741.57,377a21.89,21.89,0,0,0-3.63,0c-2.31.21-4.55.88-6.84,1.23a18.27,18.27,0,0,0-4.9,1c-1.86.85-3.2,2.49-4.72,3.84-2.1,1.87-4.62,3.24-6.65,5.18-3.52,3.38-4.64,7.72-6.41,12.07a33.16,33.16,0,0,0-2.93,13.15,35.5,35.5,0,0,0,4,16.35c2.09,4,4.64,9.44,8.3,12.2,3.28,2.47,7.71,3,11,5.51a13.5,13.5,0,0,0,2.2,1.59,8.43,8.43,0,0,0,3.42.6,89.63,89.63,0,0,0,11.59-.09,29,29,0,0,0,8.86-2.43c2.19-.93,4.72-1.43,6.52-3.14a14.63,14.63,0,0,1,1.56-1.49c1.3-.87,3.12-.74,4.35-1.71,1.76-1.41,1.28-3.84,2.33-5.63,1.18-2,3.25-3.3,4.4-5.48a11.46,11.46,0,0,1,2.08-3.34c.66-.61,1.53-1,1.94-1.82a4,4,0,0,0,.21-2.19l-.69-7.81c0-7.42-2.53-15-6.11-21.35-1.62-2.86-3.29-5.8-5.84-7.86-1.78-1.44-3.9-2.39-5.72-3.78-.85-.63-1.62-1.36-2.51-1.93-2.47-1.55-5.19-1.48-8-1.7C746.73,377.83,744.19,377.19,741.57,377Zm-.1,61.32c-.87.08-1.75.12-2.62.14a14.65,14.65,0,0,1-5.56-.63,16.56,16.56,0,0,1-4-2.39c-4.06-3-8.32-6.19-10.08-10.89a31.65,31.65,0,0,0-1.28-3.45c-.5-1-1.23-1.83-1.75-2.8-1.74-3.24-.83-7.25.52-10.67,1.45-3.67,4-10.43,7.47-12.21,1.31-.67,2.36-1.75,3.63-2.49,3-1.72,6.69-1.45,9.82-2.83,4.41-1.93,6.55-2.71,11.23-.89a23.12,23.12,0,0,1,9.45,7.08,9.19,9.19,0,0,0,1.65,1.76c.58.42,1.26.69,1.85,1.08,2,1.31,2.79,3.77,3.44,6.05,1.67,5.85,2.69,9.46-.85,14.87l-4.89,7.5a29.56,29.56,0,0,1-4.33,5.61C751.52,436.59,746.49,437.92,741.47,438.34Z"/></g><path class="cls-5" d="M745.06,373.53a23,23,0,0,0-3.63,0c-2.31.21-4.55.89-6.84,1.23a18.27,18.27,0,0,0-4.9,1c-1.86.85-3.2,2.49-4.72,3.84-2.1,1.87-4.62,3.24-6.65,5.18-3.52,3.38-4.64,7.72-6.41,12.07A33.16,33.16,0,0,0,709,410a35.5,35.5,0,0,0,3.95,16.35c2.09,4,4.64,9.44,8.3,12.2,3.28,2.47,7.71,3,11,5.51a13.5,13.5,0,0,0,2.2,1.59,8.43,8.43,0,0,0,3.42.6,89.63,89.63,0,0,0,11.59-.09,29,29,0,0,0,8.86-2.43c2.19-.93,4.72-1.43,6.52-3.14a14.63,14.63,0,0,1,1.56-1.49c1.3-.87,3.12-.74,4.35-1.71,1.76-1.4,1.28-3.84,2.33-5.63,1.18-2,3.25-3.3,4.4-5.48a11.46,11.46,0,0,1,2.08-3.34c.66-.61,1.53-1,1.94-1.82a4,4,0,0,0,.21-2.19l-.69-7.81c0-7.42-2.54-15-6.12-21.34C773.25,387,771.58,384,769,382c-1.78-1.44-3.9-2.39-5.72-3.77-.85-.64-1.62-1.37-2.51-1.94-2.47-1.55-5.2-1.48-8-1.7C750.22,374.34,747.68,373.7,745.06,373.53Zm-.1,61.32c-.88.08-1.75.12-2.62.15a14.86,14.86,0,0,1-5.56-.64,16.56,16.56,0,0,1-4-2.39c-4.06-3-8.32-6.19-10.08-10.89a31.65,31.65,0,0,0-1.28-3.45c-.5-1-1.24-1.82-1.75-2.8-1.74-3.24-.83-7.25.52-10.67,1.45-3.67,4-10.43,7.47-12.21,1.31-.67,2.36-1.75,3.63-2.48,3-1.73,6.69-1.46,9.82-2.84,4.41-1.93,6.55-2.71,11.23-.88a23,23,0,0,1,9.45,7.07,9.19,9.19,0,0,0,1.65,1.76c.58.42,1.26.69,1.85,1.09,2,1.3,2.79,3.76,3.44,6,1.67,5.85,2.69,9.46-.85,14.87l-4.89,7.5a29.56,29.56,0,0,1-4.33,5.61C755,433.1,750,434.43,745,434.85Z"/><path class="cls-6" d="M773.83,418.79a3.16,3.16,0,0,0,.17-1.73q-.27-3.07-.55-6.15a35.34,35.34,0,0,0-4.82-16.84,20.71,20.71,0,0,0-4.6-6.21c-1.4-1.13-3.08-1.88-4.52-3-.66-.51-1.27-1.08-2-1.53-1.94-1.22-4.09-1.16-6.29-1.34-2-.16-4-.66-6.12-.8a19.37,19.37,0,0,0-2.86,0c-1.83.16-3.59.7-5.4,1A14,14,0,0,0,733,383c-1.46.66-2.51,2-3.72,3-1.65,1.47-3.64,2.55-5.24,4.08-2.77,2.67-3.66,6.09-5.06,9.52A26.23,26.23,0,0,0,716.66,410a28,28,0,0,0,3.12,12.9c1.64,3.13,3.66,7.45,6.54,9.62,2.59,1.95,6.09,2.39,8.67,4.35a11,11,0,0,0,1.73,1.25,6.66,6.66,0,0,0,2.7.47,71.45,71.45,0,0,0,9.14-.06,22.85,22.85,0,0,0,7-1.93c1.73-.73,3.72-1.13,5.14-2.47a9.81,9.81,0,0,1,1.24-1.17c1-.69,2.45-.59,3.42-1.36,1.39-1.1,1-3,1.84-4.43.93-1.59,2.57-2.61,3.47-4.32a9,9,0,0,1,1.64-2.64C772.82,419.75,773.51,419.42,773.83,418.79Zm-6-2.21-4.89,7.5a29.56,29.56,0,0,1-4.33,5.61C755,433.1,750,434.43,745,434.85c-.88.08-1.75.12-2.62.15a14.86,14.86,0,0,1-5.56-.64,16.56,16.56,0,0,1-4-2.39c-4.06-3-8.32-6.19-10.08-10.89a31.65,31.65,0,0,0-1.28-3.45c-.5-1-1.24-1.82-1.75-2.8-1.74-3.24-.83-7.25.52-10.67,1.45-3.67,4-10.43,7.47-12.21,1.31-.67,2.36-1.75,3.63-2.48,3-1.73,6.69-1.46,9.82-2.84,4.41-1.93,6.55-2.71,11.23-.88a23,23,0,0,1,9.45,7.07,9.19,9.19,0,0,0,1.65,1.76c.58.42,1.26.69,1.85,1.09,2,1.3,2.79,3.76,3.44,6C770.38,407.56,771.4,411.17,767.86,416.58Z"/><g class="cls-1"><path d="M551.66,82.71s10.13,76.45-7.31,114.16-5.89,101.25-5.89,101.25,16.19-36.59,61-45.67c0,0,120.54,23.39,199.78,45.67,0,0-23.11-146.09-56.95-203.86S568.17,55.47,551.66,82.71Z"/></g><path class="cls-7" d="M560.86,67.86S571,144.31,553.54,182s-5.89,101.25-5.89,101.25,32.48-28.06,77.31-37.14c0,0,104.27,14.86,183.5,37.14,0,0-23.11-146.08-57-203.86S577.36,40.62,560.86,67.86Z"/><g class="cls-1"><circle cx="278.59" cy="269.05" r="142.61" transform="translate(-108.65 275.8) rotate(-45)"/></g><circle class="cls-8" cx="300.25" cy="258.8" r="142.61" transform="translate(-95.06 288.11) rotate(-45)"/><circle class="cls-9" cx="300.25" cy="231.88" r="142.61" transform="translate(-76.02 280.22) rotate(-45)"/><path class="cls-10" d="M220.77,338.76a19.39,19.39,0,0,0,3.83,6.55c2.48,2.46,6.05,3.42,9.45,4.21,65.79,15.25,137.82,1.19,193-37.69,3-2.13,6.08-4.41,8.06-7.54,2.25-3.56,2.9-7.89,3.48-12.07,9.2-66.37,13.79-136.91-14.58-197.61-1.9-4-4-8.11-7.08-11.34-7-7.32-17.93-9.14-28-10.09A334.3,334.3,0,0,0,265.5,84.74c-32.67,9.41-65.31,25-85.12,52.63-3.55,4.94-6.71,10.45-7.19,16.51-1,12.51,7,27.48,9.19,40,2.89,16.78,6.38,33.52,10,50.15C199.46,276.25,208.11,308.25,220.77,338.76Z"/><path class="cls-11" d="M215.16,333.15A19.39,19.39,0,0,0,219,339.7c2.49,2.46,6,3.42,9.45,4.21,65.8,15.25,137.82,1.19,193-37.69,3-2.13,6.08-4.41,8.06-7.53,2.26-3.57,2.9-7.9,3.48-12.08,9.2-66.37,13.79-136.9-14.58-197.61-1.89-4-4-8.11-7.07-11.34-7-7.32-17.94-9.14-28.05-10.09A334.32,334.32,0,0,0,259.89,79.13c-32.67,9.41-65.31,25-85.12,52.63-3.54,4.94-6.71,10.45-7.19,16.51-1,12.51,7,27.48,9.2,40,2.88,16.79,6.37,33.52,10,50.15C193.85,270.65,202.5,302.64,215.16,333.15Z"/><path class="cls-12" d="M149.59,145.45c-3.29,1.76-6,4.06-7.5,7.57-2.76,6.5.42,14,4.44,19.78s9.08,11.26,10.58,18.16c3.19,14.66-10.32,31.94-1,43.66,2.38,3,5.93,4.92,8,8.12,6.82,10.59-6.86,25-2,36.62,4.07,9.75,18.48,11.11,23.61,20.36,2,3.63,2.25,7.95,3.27,12,3.74,14.7,30.13,41.18,46.93,36.13,7.32-2.21,11.44-10,18.09-13.82,8.37-4.79,19-2.31,27.79,1.7s17.18,9.5,26.76,10.64L341,322.15c2.79-2.08,5.84-4.26,9.33-4.27,3,0,5.77,1.61,8.73,2.08,9.65,1.51,16.47-8.64,24.21-14.6,10.6-8.14,25-8.81,37.37-13.9a54.89,54.89,0,0,0,27.3-24.74c1.38-2.57,2.57-5.47,2-8.34-.68-3.53-3.79-6-5.65-9.07-3.66-6-2.25-13.84.43-20.36s6.56-12.67,7.67-19.63a26.56,26.56,0,0,0-11.9-26.1c-4.75-2.95-10.48-4.4-14.48-8.3-7.65-7.44-5.78-20-9.13-30.13C411.77,129.27,395.07,121,379.53,116c-3.93-1.27-8-2.48-11.36-4.83-4.95-3.41-8-8.86-12-13.39a42.88,42.88,0,0,0-27-14.16c-7.72-.89-15.51.34-23.18,1.58-16.77,2.69-37.33,2.87-53.22,8.83-13.44,5-22.6,10.95-38.05,7.24-10.18-2.45-22.12-7.79-30-.91-8.71,7.59-3.55,23-10.42,32.31C168.8,140.08,157.53,141.19,149.59,145.45Z"/><circle class="cls-13" cx="311.15" cy="209.85" r="128.52" transform="translate(-57.26 281.48) rotate(-45)"/><path class="cls-14" d="M432,238.57a128.86,128.86,0,0,0,7.61-31.82,128.54,128.54,0,0,0-256.31-10.53A128.52,128.52,0,0,0,432,238.57Z"/><path class="cls-15" d="M345.54,276.2a3.48,3.48,0,0,1-.9-.12c-22.62-6-46.75-6-70.08-5.94-18.64,0-37.9,0-56.65-2.93-1.76-.28-7.71-1.51-10.56-5.56a7.72,7.72,0,0,1-1.32-6c.91-4.82,5.9-6.92,7.78-7.71,37.82-15.95,79.73-15.46,120.26-15,11.92.14,24.24.28,36.2,0,4.63-.11,8.75-.33,12.28-1.9,2.88-1.28,5.82-4.05,5.91-7.36a3.73,3.73,0,0,0-1.69-3.44,8.79,8.79,0,0,0-3.14-.38l-115.51-1.54c-13.41-.18-27.28-.37-40.91-2-3.24-.38-7.43-1.84-9.47-4.8a6.81,6.81,0,0,1-1-5.57c.79-3.16,3.59-4.87,4.94-5.69a149.88,149.88,0,0,1,61.64-20.89c9.73-1,19.61-1.12,29.16-1.19,8.08-.06,16.38-.13,24.54-.79-6.89-4.18-16.26-5.27-25.47-6l-54.4-4.09c-2.26-.17-6.94-.53-9.23-4.39s-.5-8.4,2.24-11.28c6-6.31,15.3-7.18,22.09-7.82a865.48,865.48,0,0,0,115.27-18.77,3.5,3.5,0,0,1,1.59,6.82,873.21,873.21,0,0,1-116.2,18.92c-7.38.69-13.8,1.6-17.68,5.68-1.11,1.16-1.51,2.5-1.29,2.88s1,.77,3.73,1l54.4,4.09c13,1,27.53,2.9,36,13.38a3.49,3.49,0,0,1-2.25,5.66c-11.08,1.53-22.36,1.61-33.27,1.7-9.38.07-19.08.14-28.47,1.15a142.94,142.94,0,0,0-58.74,19.91,5.53,5.53,0,0,0-1.76,1.35,7.88,7.88,0,0,0,4.5,1.78c13.27,1.56,26.95,1.74,40.19,1.92l115.51,1.54a14.21,14.21,0,0,1,6,1,10.62,10.62,0,0,1,5.77,10c-.15,5.59-4.11,10.91-10.07,13.56-4.7,2.09-9.75,2.37-14.95,2.5-12.09.29-24.47.14-36.45,0-39.82-.46-81-.94-117.46,14.44-2.82,1.18-3.52,2.05-3.62,2.56a.75.75,0,0,0,.16.67c.79,1.13,3.29,2.25,5.94,2.67,18.2,2.89,37.19,2.88,55.54,2.85,23.79,0,48.37,0,71.88,6.18a3.5,3.5,0,0,1-.89,6.88Z"/><path class="cls-16" d="M322.55,295.26a95.86,95.86,0,0,1-34.36-6.4,15.57,15.57,0,0,1-.58-28.78l.19-.08a153.27,153.27,0,0,1,47.85-12.07c8.88-.76,17.84-.74,26.51-.72a269.72,269.72,0,0,0,28.28-.93,16.8,16.8,0,0,0,6.92-2.2,268.49,268.49,0,0,0-78.73-9.48c-4.43.13-9,.35-13.49.57-25.43,1.23-51.73,2.51-73.13-11.81-6.7-4.48-7.65-9.15-7.27-12.27L225,209l1.74-1.14c14.67-9.67,33.25-11.09,48.19-12.24l51.39-3.92c17.39-1.33,35.38-2.71,51-10.42,3-1.48,6.05-3.66,7.32-6a270,270,0,0,0-96.5-9.36l-3.67.33c-13.6,1.23-27.67,2.51-40.16-4.14-4.94-2.63-8.37-6.74-9.17-11a11,11,0,0,1,2.7-9.42,14.5,14.5,0,0,1,4.31-3.36,166.81,166.81,0,0,1,88.2-18.91,4.5,4.5,0,1,1-.57,9,157.85,157.85,0,0,0-83.43,17.89,5.73,5.73,0,0,0-1.67,1.25c-.86,1-.75,1.62-.7,1.9.28,1.48,2.2,3.47,4.56,4.73,10.12,5.39,22.83,4.23,35.11,3.11l3.72-.33A278.91,278.91,0,0,1,391,167.75l2.81.85.35,2.92c.83,6.9-3.86,13.4-12.85,17.85-17.19,8.48-36.91,10-54.31,11.32l-51.39,3.93c-13.58,1-28.85,2.2-41.16,9.09a12.87,12.87,0,0,0,2.58,2.17c18.92,12.67,43.71,11.46,67.68,10.3,4.5-.22,9.15-.45,13.67-.58a277.63,277.63,0,0,1,86.34,11.21l2.74.81.43,2.82a10.24,10.24,0,0,1-2.08,8c-4.1,5.33-12.08,6.55-14.43,6.8a276.36,276.36,0,0,1-29.23,1c-8.48,0-17.24,0-25.72.69a144.11,144.11,0,0,0-45,11.35l-.19.08a6.45,6.45,0,0,0-3.91,6.19,6.36,6.36,0,0,0,4.14,5.94,86.29,86.29,0,0,0,42,5.09,4.5,4.5,0,1,1,1.16,8.92A91.71,91.71,0,0,1,322.55,295.26Z"/><g class="cls-1"><path d="M371,46.11S266-19.37,166.43,62.48,87.87,246.14,87.87,246.14c45.15,82,224.61-26.42,273.88-93.94S371,46.11,371,46.11Z"/></g><path class="cls-17" d="M118.57,253.17c-25.3-4-43.75-26.26-43.77-51.89,0-34.9,10.28-102.45,80.41-160.11,76-62.44,155-39.14,188.29-24.58A52.19,52.19,0,0,1,374.25,56c2.85,17.94-.6,43.24-23.72,74.92C311.27,184.69,189.34,264.48,118.57,253.17Z"/><path class="cls-18" d="M74.87,205.92c0,.12,0,.23,0,.35a47.93,47.93,0,0,0,31.73,43.93C174.66,274,309,187.87,350.53,130.89c40.48-55.47,20.32-89.18,12-100.24C388.58,75.39,180.38,287.79,74.87,205.92Z"/><path class="cls-9" d="M259.93,88.51a18.54,18.54,0,0,1-22.88,0,18.54,18.54,0,0,1,22.88,0Z"/><path class="cls-9" d="M167.59,87a18.55,18.55,0,0,1,22.69,3,18.55,18.55,0,0,1-22.69-3Z"/><path class="cls-9" d="M197.5,153.42a20.94,20.94,0,0,1-6.67-10.1,20.9,20.9,0,0,1,1-12.06,20.88,20.88,0,0,1,6.66,10.1A20.94,20.94,0,0,1,197.5,153.42Z"/><path class="cls-9" d="M135.38,215.54a18.52,18.52,0,0,1-5.68-22.16,18.56,18.56,0,0,1,5.68,22.16Z"/><path class="cls-9" d="M121.32,144.79a20.94,20.94,0,0,1,1.81-12,21,21,0,0,1,8.82-8.3,21,21,0,0,1-1.82,12A20.92,20.92,0,0,1,121.32,144.79Z"/><path class="cls-9" d="M238.26,50.1a18.54,18.54,0,0,1-22.88,0,18.54,18.54,0,0,1,22.88,0Z"/><path class="cls-9" d="M184.55,50.1a18.54,18.54,0,0,1-22.88,0,18.54,18.54,0,0,1,22.88,0Z"/><path class="cls-9" d="M309.4,42.51a18.56,18.56,0,0,1-22.89,0,18.56,18.56,0,0,1,22.89,0Z"/><path class="cls-9" d="M265.2,15.87a20.93,20.93,0,0,1-11.44,4,20.93,20.93,0,0,1-11.44-4,18.54,18.54,0,0,1,22.88,0Z"/><g class="cls-1"><path d="M673.74,595.19h-399a11.26,11.26,0,0,1-11.26-11.26V435.24A11.26,11.26,0,0,1,274.75,424h399A11.26,11.26,0,0,1,685,435.24V583.93A11.26,11.26,0,0,1,673.74,595.19Z"/></g><path class="cls-19" d="M682.71,586.22h-399A11.27,11.27,0,0,1,272.46,575V426.26A11.26,11.26,0,0,1,283.72,415h399A11.26,11.26,0,0,1,694,426.26V575A11.27,11.27,0,0,1,682.71,586.22Z"/><path class="cls-2" d="M664.55,575.06h-365a11.26,11.26,0,0,1-11.26-11.26V437.42a11.27,11.27,0,0,1,11.27-11.26h365a11.26,11.26,0,0,1,11.26,11.26V563.8A11.27,11.27,0,0,1,664.55,575.06Z"/><path class="cls-2" d="M592.06,160.42l4.23-.24-.87-15.06,5.66-.33.87,15.07,4.24-.25.27,4.59c-.19.17-.44.11-.67.12l-12.75.75c-.24,0-.47.05-.71.07Z"/><path class="cls-2" d="M681,140.62l1.11,19.12c-.18.2-.41.14-.62.16-1.48.09-3,.16-4.43.26a1.06,1.06,0,0,1-.93-.36c-2.77-2.89-5.55-5.76-8.33-8.64-.2-.22-.41-.42-.72-.74l.59,10.21-4.84.28-1.12-19.2,5-.29s5.87,6.05,8.7,8.88l.56.54-.57-9.89Z"/><path class="cls-2" d="M639.31,163.24a10.37,10.37,0,1,1,9.78-10.88A10.33,10.33,0,0,1,639.31,163.24Zm-.3-5.17a5,5,0,1,0-5.35-4.76A5,5,0,0,0,639,158.07Z"/><path class="cls-2" d="M626.22,163.39l-5.42.31a1.17,1.17,0,0,1-.11-.65q-.35-5.7-.67-11.39a3,3,0,0,0-3.32-2.84,2.88,2.88,0,0,0-2.87,3.2c.2,3.76.41,7.52.61,11.28,0,.23,0,.47,0,.75l-5.41.31c-.15-.14-.1-.35-.11-.54q-.33-5.72-.65-11.45a7.89,7.89,0,0,1,.67-3.62,6.66,6.66,0,0,1,5.65-4.17,17.64,17.64,0,0,1,5.13,0,6.31,6.31,0,0,1,4.92,3.8,9,9,0,0,1,.85,3.42c.24,3.76.46,7.51.69,11.27C626.23,163.15,626.22,163.25,626.22,163.39Z"/><path class="cls-2" d="M638.48,136.44l-.41-7,2.32-.13.41,7,1.9-.11.11,2-6.12.36-.12-2Z"/><path class="cls-2" d="M634,134.19a4.64,4.64,0,0,1-.26,1.87,4.56,4.56,0,0,1-.93,1.56,4.75,4.75,0,0,1-1.5,1.09,5.59,5.59,0,0,1-2,.48,5.3,5.3,0,0,1-2-.25,4.76,4.76,0,0,1-1.62-.91,4.35,4.35,0,0,1-1.11-1.44,4.59,4.59,0,0,1-.48-1.83,4.58,4.58,0,0,1,1.2-3.42,4.57,4.57,0,0,1,1.51-1.1,5.43,5.43,0,0,1,2-.47,5.53,5.53,0,0,1,2,.24,4.71,4.71,0,0,1,1.61.91,4.63,4.63,0,0,1,1.11,1.44A4.85,4.85,0,0,1,634,134.19Zm-2.42.14a2.58,2.58,0,0,0-.26-1,2.55,2.55,0,0,0-.59-.75,2.52,2.52,0,0,0-.83-.47,2.67,2.67,0,0,0-1-.12,2.61,2.61,0,0,0-.95.24,2.39,2.39,0,0,0-.77.56,2.42,2.42,0,0,0-.51.81,2.51,2.51,0,0,0-.14,1,2.22,2.22,0,0,0,.26,1,2.31,2.31,0,0,0,.59.75,2.4,2.4,0,0,0,.84.47,2.43,2.43,0,0,0,1,.13,2.51,2.51,0,0,0,.95-.24,2.43,2.43,0,0,0,.77-.56,2.61,2.61,0,0,0,.5-.81A2.36,2.36,0,0,0,631.57,134.33Z"/><path class="cls-2" d="M618.48,135.87l-2.62,3.85-2.86.16,3.29-4.43L612.15,131l3-.17,3.24,3.69-.22-3.87,2.31-.13.52,8.92-2.32.13Z"/><path class="cls-2" d="M604.56,138.4l2.76-.16-.09-1.49-2.6.15-.12-2,2.61-.15-.09-1.54-2.76.16-.11-2,5.07-.3.52,8.92-5.08.3Z"/><path class="cls-2" d="M600.36,131.67l.52,8.92-2.32.13-4.6-5.21.31,5.46-2.3.13-.52-8.92,2.31-.13,4.6,5.2L598,131.8Z"/><path class="cls-2" d="M685.66,150.39l3,4.17h0a.14.14,0,0,0,.12.06.14.14,0,0,0,.12-.07l2.54-4.5a.17.17,0,0,0,0-.12.14.14,0,0,0-.08-.09l-2.87-1.35h-.07l-.07,0-2.7,1.68a.13.13,0,0,0-.07.09A.18.18,0,0,0,685.66,150.39Z"/><path class="cls-2" d="M686.37,149.21l2.06-1.29,2.21,1a.14.14,0,0,0,.17,0,.14.14,0,0,0,0-.18l-2.41-3.3a.12.12,0,0,0-.12-.06h0a.14.14,0,0,0-.12.07l-2,3.56a.15.15,0,0,0,0,.18A.15.15,0,0,0,686.37,149.21Z"/><path class="cls-2" d="M652.42,152.31l3,4.18h0a.16.16,0,0,0,.13.06.16.16,0,0,0,.12-.08l2.53-4.5a.14.14,0,0,0,0-.11.18.18,0,0,0-.08-.09l-2.87-1.35-.08,0s0,0-.06,0l-2.7,1.67a.14.14,0,0,0-.07.1A.11.11,0,0,0,652.42,152.31Z"/><path class="cls-2" d="M653.12,151.13l2.07-1.28,2.21,1a.14.14,0,0,0,.17,0,.15.15,0,0,0,0-.18l-2.41-3.31a.16.16,0,0,0-.13-.06h0a.13.13,0,0,0-.11.08l-2,3.56a.15.15,0,0,0,0,.18A.14.14,0,0,0,653.12,151.13Z"/><path class="cls-2" d="M735.14,140.82l7.5-.43,1-3.42,5.6-.32-6.58,19.69-5.73.34-8.81-18.81,5.6-.32Zm1.61,3.73,2.73,6.27,2-6.55Z"/><path class="cls-2" d="M720.31,138.33l5.26-.31,1.11,19.25-8.36.49a7.36,7.36,0,0,1-5.31-1.39,7.15,7.15,0,0,1-.55-9.49,7.36,7.36,0,0,1,5.12-2l3.1-.18Zm.61,10.41-1.74.1c-1.93.12-2.85,1-2.76,2.57s1.1,2.34,3,2.23l1.75-.1Z"/><path class="cls-2" d="M696.5,154.77l6.25-.36-.19-3.22-5.89.34-.25-4.24,5.9-.34-.2-3.32-6.24.37-.25-4.24,11.5-.67,1.12,19.25-11.5.67Z"/><path class="cls-19" d="M660,137.1l12-.69-7.55-8.81a1.05,1.05,0,0,0-.87-.37l-7.95.46a1.07,1.07,0,0,0-.82,1.66Z"/><path class="cls-19" d="M608.2,176.77,617,186.4a.73.73,0,0,0,1.26-.54l-.31-5a.73.73,0,0,1,.81-.77l90.41,11.52a4.43,4.43,0,0,0,3.92-7.28L695,163.29l-16.65,1,6.07,9a2.14,2.14,0,0,1-1.9,3.32l-63.38-4a.73.73,0,0,1-.68-.68l-.23-3.61a.73.73,0,0,0-1.21-.49l-8.78,7.93A.73.73,0,0,0,608.2,176.77Z"/><g class="cls-20"><path d="M211.15,448.09a53.44,53.44,0,1,1-53.47-53.41A53.44,53.44,0,0,1,211.15,448.09Z"/></g><circle class="cls-21" cx="163.32" cy="444.75" r="53.43" transform="matrix(0.15, -0.99, 0.99, 0.15, -300.59, 540.98)"/><path class="cls-22" d="M209.28,444.73a46,46,0,1,1-46-45.94A46,46,0,0,1,209.28,444.73Z"/><path class="cls-23" d="M203.68,444.73a40.36,40.36,0,1,1-40.38-40.34A40.37,40.37,0,0,1,203.68,444.73Z"/><g class="cls-24"><path class="cls-25" d="M163.34,485.12A40.21,40.21,0,0,0,190,475a56.43,56.43,0,0,0-11-1.24c-7.22-.3-15.43-1.27-19.66-7.12-3.52-4.86-3.48-12.2-8.39-15.65-2-1.42-4.69-2-6.29-3.87-1.37-1.62-1.65-3.88-1.64-6a28.42,28.42,0,0,1,11.6-22.47c3.25-2.34,7-4,9.71-7a10.1,10.1,0,0,0,2.62-7.1c-1.22-.11-2.45-.17-3.69-.17a40.37,40.37,0,0,0,0,80.73Z"/></g><g class="cls-26"><path class="cls-27" d="M123,444.26a40.36,40.36,0,0,0,77.82,15c-4-1.86-8.61-2.37-13-3.17-9.78-1.8-20.48-6.77-22.94-16.4-2-7.68,7.18-24.62,4.56-33.65a8.54,8.54,0,0,0-.76-1.81,40.93,40.93,0,0,0-5.34-.36A40.36,40.36,0,0,0,123,444.26Z"/></g><path class="cls-28" d="M176.5,422.54a5.32,5.32,0,1,1-5.32-5.32A5.32,5.32,0,0,1,176.5,422.54Z"/><g class="cls-1"><path d="M366.83,495.19q-6.61-8.07-16.32-8.07a19.92,19.92,0,0,0-7.92,1.56,19.19,19.19,0,0,0-6.27,4.22,19.51,19.51,0,0,0-4.13,6.37,21,21,0,0,0-1.5,8,21.23,21.23,0,0,0,1.5,8.07,19.44,19.44,0,0,0,18.22,12.24q9.13,0,16.42-7.77v22.54l-1.94.68a55.15,55.15,0,0,1-8.17,2.28,39.16,39.16,0,0,1-7.48.73,38.16,38.16,0,0,1-26.76-10.93A40,40,0,0,1,314,522.73a39.64,39.64,0,0,1-.05-31.09,38.73,38.73,0,0,1,35.42-23,39.89,39.89,0,0,1,8.6.93,52.08,52.08,0,0,1,8.89,2.86Z"/><path d="M397.92,470.7v57.13h22.83V544H378.88V470.7Z"/><path d="M478.47,531.23H451.26L446.89,544H426.58l27.89-73.26h20.79L503.15,544H482.84Zm-5.06-14.47-8.55-24.39-8.55,24.39Z"/><path d="M530.54,470.7V544h-19V470.7Z"/><path d="M542.59,544,555,470.7h18.85l14.67,39.06,14.57-39.06H622L634.41,544H615.46l-6.31-42.17L591.85,544h-7.58l-16.42-42.17L561.54,544Z"/></g><path class="cls-7" d="M369.83,487.19q-6.61-8.07-16.32-8.07a19.92,19.92,0,0,0-7.92,1.56,19.19,19.19,0,0,0-6.27,4.22,19.51,19.51,0,0,0-4.13,6.37,21,21,0,0,0-1.5,8,21.23,21.23,0,0,0,1.5,8.07,19.44,19.44,0,0,0,18.22,12.24q9.13,0,16.42-7.77v22.54l-1.94.68a55.15,55.15,0,0,1-8.17,2.28,39.16,39.16,0,0,1-7.48.73,38.16,38.16,0,0,1-26.76-10.93A40,40,0,0,1,317,514.73a39.64,39.64,0,0,1-.05-31.09,38.73,38.73,0,0,1,35.42-23,39.89,39.89,0,0,1,8.6.93,52.08,52.08,0,0,1,8.89,2.86Z"/><path class="cls-7" d="M400.92,462.7v57.13h22.83V536H381.88V462.7Z"/><path class="cls-7" d="M481.47,523.23H454.26L449.89,536H429.58l27.89-73.26h20.79L506.15,536H485.84Zm-5.06-14.47-8.55-24.39-8.55,24.39Z"/><path class="cls-7" d="M533.54,462.7V536h-19V462.7Z"/><path class="cls-7" d="M545.59,536,558,462.7h18.85l14.67,39.06,14.57-39.06H625L637.41,536H618.46l-6.31-42.17L594.85,536h-7.58l-16.42-42.17L564.54,536Z"/><g class="cls-1"><path d="M631,317.73a39.06,39.06,0,0,0-5.84,0c-3.71.34-7.31,1.43-11,2-2.66.4-5.42.53-7.87,1.65-3,1.36-5.14,4-7.58,6.17-3.38,3-7.43,5.2-10.69,8.33-5.65,5.43-7.45,12.4-10.3,19.39S573,368.62,573,376.41a57,57,0,0,0,6.36,26.28c3.35,6.39,7.46,15.18,13.33,19.61,5.28,4,12.4,4.86,17.65,8.86a22,22,0,0,0,3.54,2.56,13.81,13.81,0,0,0,5.5,1,144.75,144.75,0,0,0,18.63-.14,46.76,46.76,0,0,0,14.23-3.92c3.52-1.48,7.59-2.3,10.48-5a20.4,20.4,0,0,1,2.52-2.4c2.08-1.41,5-1.19,7-2.76,2.84-2.25,2.07-6.17,3.75-9,1.9-3.24,5.23-5.31,7.08-8.81,1-1.88,1.77-3.95,3.34-5.38,1.06-1,2.46-1.65,3.12-2.93a6.44,6.44,0,0,0,.34-3.52l-1.11-12.54c0-11.92-4.08-24.08-9.83-34.31-2.59-4.6-5.28-9.32-9.38-12.65-2.86-2.31-6.27-3.84-9.2-6.06-1.35-1-2.6-2.2-4-3.1-4-2.5-8.35-2.38-12.82-2.74C639.3,319,635.21,318,631,317.73Zm-.16,98.56c-1.41.12-2.82.2-4.22.23a23.8,23.8,0,0,1-8.94-1,27.54,27.54,0,0,1-6.46-3.85c-6.51-4.76-13.36-9.94-16.2-17.49a50.53,50.53,0,0,0-2-5.56c-.82-1.57-2-2.93-2.83-4.49-2.79-5.22-1.33-11.66.84-17.16,2.34-5.9,6.42-16.76,12-19.62,2.1-1.08,3.8-2.8,5.84-4,4.75-2.77,10.75-2.34,15.78-4.55,7.08-3.11,10.52-4.37,18-1.43a36.84,36.84,0,0,1,15.18,11.37,14.83,14.83,0,0,0,2.65,2.83c.93.68,2,1.11,3,1.74,3.18,2.1,4.48,6.05,5.53,9.71,2.69,9.4,4.31,15.21-1.36,23.91L659.79,399a47.84,47.84,0,0,1-7,9C647,413.47,638.91,415.62,630.84,416.29Z"/></g><path class="cls-5" d="M636.61,312.13a37.81,37.81,0,0,0-5.84,0c-3.72.35-7.32,1.43-11,2-2.66.4-5.43.53-7.88,1.65-3,1.36-5.13,4-7.58,6.17-3.37,3-7.43,5.2-10.68,8.33-5.66,5.43-7.46,12.41-10.3,19.39s-4.72,13.34-4.72,21.14A56.91,56.91,0,0,0,585,397.08c3.35,6.39,7.46,15.18,13.33,19.61,5.27,4,12.4,4.86,17.65,8.87a22.52,22.52,0,0,0,3.54,2.55,13.78,13.78,0,0,0,5.5,1,144.58,144.58,0,0,0,18.62-.14A46.46,46.46,0,0,0,657.85,425c3.52-1.48,7.59-2.3,10.48-5a20.4,20.4,0,0,1,2.52-2.4c2.08-1.41,5-1.19,7-2.76,2.83-2.25,2.07-6.17,3.75-9,1.89-3.24,5.23-5.31,7.07-8.81,1-1.88,1.78-4,3.35-5.38,1.06-1,2.46-1.65,3.11-2.93a6.32,6.32,0,0,0,.35-3.51l-1.11-12.55c0-11.92-4.08-24.08-9.83-34.31-2.59-4.6-5.28-9.32-9.38-12.65-2.86-2.31-6.27-3.84-9.2-6.06-1.35-1-2.6-2.19-4-3.1-4-2.5-8.34-2.38-12.81-2.73C644.9,313.43,640.81,312.4,636.61,312.13Zm-.16,98.55c-1.41.12-2.82.2-4.22.24a24,24,0,0,1-8.94-1,27,27,0,0,1-6.46-3.85c-6.51-4.76-13.36-9.94-16.2-17.49a48.61,48.61,0,0,0-2-5.56c-.81-1.57-2-2.93-2.82-4.49-2.79-5.21-1.33-11.65.84-17.16,2.34-5.9,6.42-16.76,12-19.62,2.1-1.08,3.8-2.8,5.84-4,4.74-2.77,10.74-2.34,15.78-4.55,7.08-3.11,10.52-4.37,18-1.43a36.81,36.81,0,0,1,15.17,11.37,15.21,15.21,0,0,0,2.66,2.83c.93.68,2,1.11,3,1.74,3.18,2.1,4.48,6.05,5.53,9.71,2.68,9.4,4.31,15.21-1.37,23.91q-3.91,6-7.85,12.05a47.84,47.84,0,0,1-7,9C652.6,407.86,644.52,410,636.45,410.68Z"/><path class="cls-6" d="M682.84,384.87a5.1,5.1,0,0,0,.28-2.77q-.45-5-.88-9.9c0-9.41-3.22-19-7.75-27.06-2-3.63-4.17-7.36-7.4-10-2.26-1.82-5-3-7.26-4.78-1.06-.81-2.05-1.73-3.18-2.45-3.12-2-6.58-1.88-10.11-2.15-3.29-.26-6.52-1.07-9.83-1.29a29.42,29.42,0,0,0-4.61,0c-2.93.27-5.77,1.13-8.68,1.56-2.1.32-4.28.42-6.21,1.3-2.35,1.08-4.05,3.16-6,4.87-2.66,2.37-5.86,4.1-8.43,6.57-4.46,4.28-5.88,9.78-8.12,15.3S591,364.63,591,370.78a45,45,0,0,0,5,20.72c2.65,5,5.89,12,10.52,15.47,4.16,3.13,9.78,3.83,13.92,7a17.44,17.44,0,0,0,2.79,2,10.63,10.63,0,0,0,4.34.76,112.5,112.5,0,0,0,14.69-.11,36.41,36.41,0,0,0,11.23-3.09c2.78-1.17,6-1.81,8.26-4a16.88,16.88,0,0,1,2-1.89c1.65-1.11,3.95-.94,5.5-2.17,2.24-1.78,1.64-4.87,3-7.13,1.49-2.55,4.13-4.19,5.58-6.95a14.56,14.56,0,0,1,2.64-4.24C681.22,386.41,682.33,385.88,682.84,384.87Zm-9.59-3.55q-3.91,6-7.85,12.05a47.84,47.84,0,0,1-7,9c-5.83,5.47-13.91,7.62-22,8.29-1.41.12-2.82.2-4.22.24a24,24,0,0,1-8.94-1,27,27,0,0,1-6.46-3.85c-6.51-4.76-13.36-9.94-16.2-17.49a48.61,48.61,0,0,0-2-5.56c-.81-1.57-2-2.93-2.82-4.49-2.79-5.21-1.33-11.65.84-17.16,2.34-5.9,6.42-16.76,12-19.62,2.1-1.08,3.8-2.8,5.84-4,4.74-2.77,10.74-2.34,15.78-4.55,7.08-3.11,10.52-4.37,18-1.43a36.81,36.81,0,0,1,15.17,11.37,15.21,15.21,0,0,0,2.66,2.83c.93.68,2,1.11,3,1.74,3.18,2.1,4.48,6.05,5.53,9.71C677.31,366.81,678.93,372.62,673.25,381.32Z"/></g></g></svg>